<svg width="54" height="54" viewBox="0 0 54 54" style="width: 32px; height: 32px;" xmlns="http://www.w3.org/2000/svg"><g fill="none" transform="translate(7 7)"><path fill="#3A3F50" d="M20.1230645,0 C20.3188065,0.0648064516 20.5198387,0.117709677 20.7102903,0.197064516 C21.6956129,0.601774194 22.6862258,0.999870968 23.6596452,1.43235484 C23.9785989,1.58143952 24.331315,1.64349566 24.682,1.61222581 C25.7678387,1.52493548 26.8563226,1.47996774 27.9448065,1.43235484 C28.5953468,1.3878127 29.2151029,1.71510539 29.545129,2.27748387 C29.781871,2.64251613 30.0305161,3.00093548 30.2870968,3.35406452 C30.5436774,3.70719355 30.8835806,3.85003226 31.3676452,3.76009677 C33.3435806,3.39770968 35.3353871,3.20593548 37.3324839,3.58551613 C38.0612258,3.7243871 38.7688065,4.00609677 39.4684516,4.2706129 C40.0398065,4.48751613 40.2950645,4.9676129 40.3757419,5.56145161 C40.5725277,7.07813043 40.5507032,8.61519713 40.3109355,10.1256774 C40.1482581,11.1982903 39.8665484,12.2537097 39.6192258,13.3117742 C39.5716129,13.5128065 39.5160645,13.6728387 39.6708065,13.858 C41.3359355,15.8550968 41.2314516,18.0254516 40.2844839,20.2738387 C39.5795484,21.9548387 38.5307419,23.4162903 37.4607742,24.8645161 C34.3884194,29.0359355 30.7738065,32.7034516 26.937,36.162 C26.2598387,36.7730323 25.5747419,37.3774516 24.8526129,37.9329355 C23.3184194,39.1126774 21.5937742,39.7938065 19.6297419,39.7633871 C18.4394194,39.744871 17.3324194,39.3890968 16.2796452,38.8508065 C14.7375161,38.0572581 13.3369032,37.0560645 11.972,36.0032903 C9.06232258,33.7549032 6.31664516,31.3253226 3.87648387,28.5717097 C2.90967742,27.4819032 2.05793548,26.2770323 1.17577419,25.1065484 C0.717892161,24.4817087 0.385931147,23.7737648 0.198387097,23.0221613 C0.146341703,22.883318 0.0798474043,22.7503294 0,22.6253871 L0,20.2447419 C0.0700967742,20.0913226 0.150774194,19.941871 0.206322581,19.7831613 C0.454967742,19.0755806 0.632193548,18.3349355 0.952258065,17.6604194 C3.75745161,11.7405484 7.75296774,6.74516129 12.7880323,2.57903226 C14.1410323,1.46012903 15.6553871,0.601774194 17.3906129,0.198387097 C17.5916452,0.150774194 17.7873871,0.0661290323 17.9791613,0.00529032258 L20.1230645,0 Z M12.3806774,32.9864839 C12.4256452,33.0235161 12.4719355,33.0592258 12.5129355,33.0949355 L12.7364516,33.2139677 C12.82798,33.3548479 12.9383346,33.4825567 13.0644516,33.5935484 C14.2060471,34.3738337 15.452983,34.9875043 16.7676774,35.4160645 C17.4409661,35.6486794 18.1746356,35.6369744 18.8401613,35.383 C20.310871,34.8328065 21.6837097,34.1807742 22.411129,32.6624516 C22.4448183,32.5913779 22.4851138,32.5236283 22.5314839,32.4600968 C22.9811916,31.8210861 23.6852857,31.4077924 24.4624516,31.3266452 C25.2440968,31.2406774 26.035,31.2353871 26.8232581,31.1943871 C27.5665484,31.1586774 28.2476774,30.929871 28.674871,30.3029677 C28.9552581,29.8876774 29.125871,29.3864194 29.2845806,28.905 C29.5279355,28.167 29.986871,27.6829355 30.7394194,27.4871935 C31.0378423,27.3914798 31.3434546,27.3198312 31.6533226,27.2729355 C33.4731935,27.1062903 34.7706452,26.0826129 35.7533226,24.6621613 C36.3908065,23.7469355 36.8907419,22.7259032 37.3615806,21.7114839 C38.0908575,20.1831416 38.6138835,18.5646964 38.9169355,16.8986129 C39.0743226,15.9833871 38.581,15.0655161 37.6287419,15.1184194 C37.6551935,14.9861613 37.6750323,14.8539032 37.7120645,14.7216452 C37.9765806,13.7733548 38.2701935,12.8303548 38.5294194,11.8794194 C39.0359677,10.0185484 39.2925484,8.14312903 38.9605806,6.21083871 C38.8534516,5.58790323 38.5638065,5.26122581 37.9739355,5.1316129 C36.9004026,4.87432122 35.7938788,4.7824454 34.6926129,4.85916129 C32.9150645,5.00993548 31.1652903,5.25593548 29.4816452,5.86696774 C29.3394303,5.90940912 29.1950666,5.94428596 29.0491613,5.97145161 C29.0491613,5.49929032 29.0822258,5.08267742 29.0491613,4.674 C28.9340968,3.49425806 28.6523871,3.17948387 27.7622903,3.01945161 C26.8364839,2.85412903 25.8524839,2.76551613 24.9346129,2.90703226 C22.3754194,3.30380645 20.0582581,4.346 17.9844516,5.90664516 C17.4355806,6.31929032 16.9039032,6.75574194 16.3153548,7.21864516 C15.7611935,6.53883871 14.9927742,6.5666129 14.2812258,6.6896129 C13.407443,6.84237594 12.5494768,7.07479712 11.7180645,7.38396774 C9.04104348,8.3680176 6.6857977,10.0685709 4.90941935,12.3 C2.88058065,14.8446452 1.61487097,17.6842258 1.78151613,21.0290323 C1.81337127,21.6415552 1.96243032,22.2422812 2.2206129,22.7986452 C2.44867508,23.3621143 2.96692654,23.7554981 3.57096774,23.8236452 C3.95187097,24.0617097 4.33806452,24.2944839 4.71367742,24.5404839 C6.38713832,25.6162319 7.93300256,26.8785694 9.32154839,28.3032258 C9.49493943,28.4536426 9.68277785,28.5865471 9.88232258,28.7 L9.88232258,28.7 L9.9973871,28.9407097 L9.9973871,28.9407097 L10.1124516,29.1748065 C10.2367742,29.4393226 10.3544839,29.7104516 10.4840968,29.9683548 C10.9747742,30.9642581 11.290871,32.0606774 12.151871,32.841 L12.3767097,32.9838387 L12.3806774,32.9864839 Z"></path><path fill="#282B39" d="M12.7417419,33.2139677 L12.5182258,33.0949355 L12.3859677,32.9864839 L12.3859677,32.9864839 L12.161129,32.8436452 C11.300129,32.0633226 10.9840323,30.9669032 10.4933548,29.971 C10.3610968,29.7064839 10.2460323,29.4419677 10.1217097,29.1774516 L10.0066452,28.9433548 L10.0066452,28.9433548 L9.88232258,28.7 L9.88232258,28.7 C9.87466635,28.6220138 9.85779605,28.5452095 9.83206452,28.4711935 C9.31625806,27.4051935 8.82029032,26.3272903 8.27009677,25.2798065 C7.92782146,24.6554408 7.55118961,24.0505338 7.14193548,23.467871 C6.54280645,22.5857097 6.06270968,22.5182581 5.23345161,23.1570645 C5.14087097,23.2284839 5.03903226,23.2893226 4.94777419,23.3647097 C4.55926816,23.6788404 4.07025101,23.8418461 3.57096774,23.8236452 C2.9667407,23.7562006 2.44795779,23.3633063 2.21929032,22.7999677 C1.9614003,22.2431033 1.81278733,21.6419167 1.78151613,21.0290323 C1.61487097,17.6855484 2.88058065,14.8459677 4.90941935,12.3 C6.68288872,10.0713028 9.0337802,8.37183566 11.7061613,7.3866129 C12.5375736,7.07744228 13.3955398,6.8450211 14.2693226,6.69225806 C14.9874839,6.56 15.7492903,6.53619355 16.3034516,7.22129032 C16.892,6.7583871 17.4236774,6.32193548 17.9725484,5.90929032 C20.0463548,4.34335484 22.3635161,3.30645161 24.9227097,2.90967742 C25.8405806,2.76816129 26.8272258,2.85677419 27.7503871,3.02209677 C28.6470968,3.18212903 28.9221935,3.49690323 29.0372581,4.67664516 C29.0769355,5.08532258 29.0372581,5.50193548 29.0372581,5.97409677 C29.1831634,5.94693112 29.327527,5.91205428 29.4697419,5.8696129 C31.1533871,5.2546129 32.9084516,5.01258065 34.6807097,4.86180645 C35.7819756,4.78509056 36.8884993,4.87696638 37.9620323,5.13425806 C38.5545484,5.26651613 38.8415484,5.59054839 38.9486774,6.21348387 C39.2806452,8.14577419 39.0240645,10.0211935 38.5175161,11.8820645 C38.253,12.833 37.9712903,13.776 37.7001613,14.7242903 C37.663129,14.8565484 37.6432903,14.9888065 37.6168387,15.1210645 C37.5341986,15.2732307 37.4613098,15.4304937 37.3986129,15.5919032 C36.8542601,17.2644587 36.1564972,18.883127 35.3142258,20.4272581 C34.2773226,22.329129 32.8013226,23.7337097 30.6217097,24.205871 C29.4313871,24.4703871 28.7595161,24.287871 28.3733226,23.0459677 C28.2969389,22.7397019 28.1979138,22.4395322 28.0770645,22.1479355 C27.9448065,21.8834194 27.7358387,21.6506452 27.4766129,21.2869355 C27.3734516,21.5977419 27.3046774,21.755129 27.2689677,21.9178065 C27.1367097,22.5142903 27.0732258,23.1266452 26.896,23.7072581 C26.4992258,25.0047097 26.0574839,26.2889355 25.6197097,27.5744839 C25.4596774,28.0466452 25.1237419,28.2728065 24.6105806,28.3614194 C23.8300316,28.4772136 23.0361952,28.4705202 22.2577097,28.3415806 C21.3900968,28.2212258 21.1070645,27.9805161 20.8465161,27.1512581 C20.6922735,26.6427926 20.4976767,26.1474551 20.2645806,25.6699677 C19.8790659,24.8918294 19.1871683,24.3091787 18.3547742,24.0617097 C18.3098065,24.641 18.2529355,25.1687097 18.229129,25.6977419 C18.178871,26.8629355 18.1643226,28.0294516 18.096871,29.1933226 C18.0280968,30.3836452 17.6604194,31.5025484 17.1287419,32.579129 C16.5692903,33.7139032 15.4371613,33.9532903 14.5457419,33.7549032 C13.9360323,33.6147097 13.3421935,33.3964839 12.7417419,33.2139677 Z M37.0322581,8.93270968 C37.0692557,8.82003391 37.0949522,8.70395695 37.1089677,8.58619355 C37.1393871,7.34825806 36.7875806,6.83377419 35.4742581,6.78748387 L35.3552258,6.78748387 C34.2548387,6.75970968 33.1967742,6.9766129 32.1387097,7.26625806 C31.0422903,7.56780645 30.0000968,7.99632258 29.1324839,8.75812903 C28.9811278,8.87690837 28.8751438,9.04405487 28.8322581,9.2316129 C28.6854516,10.7129032 28.5677419,12.1915484 28.4354839,13.6715161 C28.3323226,14.4306774 28.2296022,15.1898387 28.1273226,15.949 C28.0043226,16.866871 27.8866129,17.7873871 27.7556774,18.7052581 C27.7107097,19.0173871 27.7675806,19.2276774 28.1035161,19.3453871 C28.6113871,19.5239355 28.961871,19.9088065 29.2210968,20.3650968 C29.4260968,20.7248387 29.6072903,21.1004516 29.7765806,21.4787097 C29.9088387,21.7908387 30.0768065,21.8953226 30.4603548,21.8397742 C31.2346131,21.7450238 31.9365054,21.3379359 32.4032258,20.7129355 C32.9137419,20.0357742 33.4255806,19.3414194 33.7972258,18.5849032 C34.8017016,16.5694276 35.6557721,14.4824367 36.3524516,12.341 C36.7095484,11.2300323 37.0322581,10.1124516 37.0322581,8.93270968 Z M26.8854194,7.48712903 C26.8973226,6.87874194 26.9541935,6.2663871 26.9065806,5.66196774 C26.8655806,5.1593871 26.5336129,4.88693548 26.0257419,4.86841935 C25.5918031,4.84253957 25.1563325,4.87142282 24.7296129,4.9543871 C21.8807742,5.60906452 19.4630968,7.0453871 17.3747419,9.0676129 C17.1803226,9.25674194 17.1472581,9.4233871 17.2080968,9.69451613 C17.4183871,10.6375161 17.5929677,11.5884516 17.7622581,12.5407097 C17.8852581,13.2390323 17.9765161,13.9426452 18.0823226,14.6436129 C18.0823226,14.8023226 18.0823226,14.9610323 18.0823226,15.1197419 C18.1616774,17.197957 18.2427957,19.2757312 18.3256774,21.3530645 C18.3369704,21.4182865 18.3551473,21.4821273 18.3799032,21.5435161 C18.6020968,21.6030323 18.8322258,21.6559355 19.0570645,21.7286774 C20.5119032,22.1955484 21.4443226,23.2179032 22.099,24.559 C22.2882529,24.9705606 22.534461,25.353452 22.8303871,25.6964194 C23.1729355,26.0746774 23.5379677,26.0336774 23.9254839,25.6964194 C24.3466799,25.3259728 24.6374394,24.8297805 24.7547419,24.2812581 C24.9875161,23.2231935 25.1832581,22.1532258 25.3565161,21.0832581 C25.6069247,19.5437742 25.8370538,18.0007634 26.0469032,16.4542258 C26.2029677,15.2996129 26.3114194,14.1383871 26.4436774,12.9784839 C26.5574194,11.9204194 26.6724839,10.8623548 26.7624194,9.79370968 C26.8179677,9.0266129 26.8483871,8.25687097 26.8854194,7.48712903 Z M15.687129,12.3806774 C15.5350323,11.587129 15.441129,10.7777097 15.2149677,10.0000323 C14.9504516,9.08216129 14.4121613,8.8216129 13.4956129,9.04645161 C13.1659514,9.1195013 12.847184,9.23509339 12.5473226,9.39032258 C11.4561935,9.98548387 10.3491935,10.5634516 9.30567742,11.234 C7.07712903,12.6584194 5.5006129,14.6568387 4.44783871,17.0745161 C4.02858065,18.04 3.73496774,19.0451613 3.73893548,20.1032258 C3.71380645,20.853129 3.84606452,21.0105161 4.56422581,20.9443871 C4.89719193,20.9106563 5.22122566,20.8165386 5.52045161,20.6666452 C5.92516129,20.4642903 5.92516129,20.269871 5.60509677,19.9537742 C5.51251613,19.859871 5.43712903,19.7500968 5.35116129,19.6469355 C5.52706452,19.326871 5.74793548,19.2501613 6.06667742,19.3334839 C6.99248387,19.557 7.77280645,20.0027097 8.30051613,20.7883226 C8.83172485,21.5513848 9.3085903,22.3508747 9.72758065,23.180871 C10.5052581,24.8036774 11.1903548,26.470129 11.9349677,28.1088065 C12.3039677,28.9182258 12.6901613,29.7236774 13.1252903,30.5013548 C13.4627072,31.1139379 14.1595749,31.4355691 14.8446452,31.2949032 C15.5403226,31.1785161 15.8484839,30.6957742 15.9595806,30.0701935 C16.0909708,29.4326137 16.171461,28.7855967 16.2002903,28.1352581 C16.2320323,25.6214731 16.2382043,23.1085699 16.2188065,20.5965484 C16.2095484,19.1906452 16.1725161,17.7834194 16.0865484,16.3801613 C15.9926452,15.0483226 15.8207097,13.7138387 15.687129,12.3767097 L15.687129,12.3806774 Z"></path><path fill="#11131B" d="M12.7417419 33.2139677C13.3421935 33.3964839 13.9320645 33.6107419 14.5470645 33.7509355 15.4384839 33.9493226 16.5706129 33.7099355 17.1300645 32.5751613 17.6590968 31.4985806 18.0294194 30.3849677 18.0981935 29.1893548 18.1656452 28.0254839 18.1801935 26.8589677 18.2304516 25.6937742 18.2542581 25.1647419 18.311129 24.6357097 18.3560968 24.0577419 19.1884909 24.305211 19.8803885 24.8878617 20.2659032 25.666 20.4989992 26.1434873 20.6935961 26.6388249 20.8478387 27.1472903 21.1123548 27.9805161 21.3914194 28.2212258 22.2590323 28.3376129 23.0375178 28.4665525 23.8313541 28.4732459 24.6119032 28.3574516 25.1250645 28.2688387 25.461 28.0426774 25.6210323 27.5705161 26.0588065 26.2849677 26.5005484 25.0007419 26.8973226 23.7032903 27.0745484 23.1226774 27.1433226 22.5129677 27.2702903 21.9138387 27.306 21.7511613 27.3747742 21.5937742 27.4779355 21.2829677 27.7424516 21.6466774 27.946129 21.8754839 28.0783871 22.1439677 28.1992364 22.4355645 28.2982615 22.7357342 28.3746452 23.042 28.7714194 24.2839032 29.4327097 24.4637742 30.6230323 24.2019032 32.8079355 23.723129 34.2786452 22.3251613 35.3155484 20.4232903 36.1578198 18.8791592 36.8555827 17.260491 37.3999355 15.5879355 37.4626324 15.426526 37.5355212 15.269263 37.6181613 15.1170968 38.5704194 15.0641935 39.0637419 15.9820645 38.9063548 16.8972903 38.6033028 18.5633739 38.0802769 20.181819 37.351 21.7101613 36.8801613 22.7245806 36.3802258 23.7456129 35.7427419 24.6608387 34.7560968 26.076 33.4586452 27.1049677 31.6427419 27.2716129 31.332874 27.3185086 31.0272616 27.3901572 30.7288387 27.485871 29.9762903 27.6816129 29.5173548 28.1656774 29.274 28.9036774 29.1152903 29.3850968 28.9446774 29.8863548 28.6642903 30.3016452 28.2410645 30.929871 27.5599355 31.1573548 26.8126774 31.1930645 26.019129 31.2300968 25.2335161 31.2353871 24.451871 31.3253226 23.6747051 31.4064699 22.9706109 31.8197635 22.5209032 32.4587742 22.4745332 32.5223057 22.4342377 32.5900553 22.4005484 32.661129 21.6757742 34.1794516 20.3029355 34.8314839 18.8295806 35.3816774 18.164055 35.6356518 17.4303855 35.6473568 16.7570968 35.4147419 15.4424023 34.9861817 14.1954664 34.3725111 13.053871 33.5922258 12.9334481 33.4806016 12.8284767 33.3533905 12.7417419 33.2139677L12.7417419 33.2139677zM3.57096774 23.8236452C4.0698012 23.841524 4.55829314 23.6785368 4.94645161 23.3647097 5.03770968 23.2906452 5.13954839 23.2324516 5.23212903 23.1570645 6.0613871 22.5182581 6.54148387 22.5857097 7.1406129 23.467871 7.54974181 24.0492466 7.92637183 24.6528261 8.26877419 25.2758387 8.81896774 26.3233226 9.31493548 27.4012258 9.83074194 28.4672258 9.85647347 28.5412417 9.87334377 28.618046 9.881 28.6960323 9.68145527 28.5825794 9.49361684 28.4496748 9.32022581 28.2992581 7.93209302 26.8746806 6.38667591 25.6123459 4.71367742 24.5365161 4.3393871 24.2944839 3.95319355 24.0617097 3.57096774 23.8236452z"></path><path fill="#017B8F" d="M9.88232258 28.7L9.9973871 28.9407097 9.88232258 28.7zM9.99870968 28.9367419L10.1137742 29.1708387 9.99870968 28.9367419z"></path><path fill="#E27B11" d="M12.1531935 32.8423226L12.3780323 32.9851613 12.1531935 32.8423226zM12.3806774 32.9864839L12.5129355 33.0949355 12.3806774 32.9864839z"></path><path fill="#6B7185" d="M15.687129 12.3767097C15.8193871 13.7138387 15.9926452 15.0483226 16.0839032 16.3867742 16.1738387 17.7900323 16.2161613 19.1972581 16.2161613 20.6031613 16.232914 23.1187097 16.2267419 25.6316129 16.1976452 28.141871 16.1688158 28.7922096 16.0883256 29.4392266 15.9569355 30.0768065 15.8458387 30.7023871 15.5376774 31.185129 14.842 31.3015161 14.1569297 31.442182 13.4600621 31.1205508 13.1226452 30.5079677 12.6928065 29.7302903 12.3066129 28.920871 11.9323226 28.1154194 11.1877097 26.4767419 10.5026129 24.8089677 9.72493548 23.1874839 9.30594514 22.3574876 8.82907969 21.5579977 8.29787097 20.7949355 7.76883871 20.0013871 6.98322581 19.5583226 6.06403226 19.3400968 5.75058065 19.2633871 5.52441935 19.3334839 5.34851613 19.6535484 5.43448387 19.7567097 5.50987097 19.8664839 5.60245161 19.9603871 5.92251613 20.2804516 5.92251613 20.4709032 5.51780645 20.6732581 5.2185805 20.8231515 4.89454676 20.9172692 4.56158065 20.951 3.84341935 21.017129 3.71116129 20.8597419 3.73629032 20.1098387 3.92145161 19.9498065 4.16348387 19.8228387 4.27854839 19.623129 4.79303226 18.737 5.27312903 17.8297097 5.76116129 16.9290323 6.06535484 16.3656129 6.49651613 16.2267419 7.01629032 16.605 7.41801714 16.9232105 7.80006339 17.2655063 8.16032258 17.63 8.91683871 18.3389032 9.75667742 18.7158387 10.7935806 18.2912903 11.5306808 17.9923911 12.1774134 17.5069998 12.6703226 16.8827419 13.7971613 15.4636129 14.9094516 14.0299355 15.687129 12.3767097zM26.8854194 7.48712903C26.8430968 8.25687097 26.8179677 9.0266129 26.7531613 9.79503226 26.6632258 10.8530968 26.5481613 11.9190968 26.4344194 12.9798065 26.3114194 14.1397097 26.199 15.3009355 26.0376452 16.4555484 25.8286774 18.002086 25.5985484 19.5450968 25.3472581 21.0845806 25.174 22.1545484 24.9782581 23.2231935 24.7454839 24.2825806 24.6281813 24.8311031 24.3374219 25.3272954 23.9162258 25.6977419 23.5287097 26.0376452 23.1636774 26.0786452 22.821129 25.6977419 22.525203 25.3547746 22.2789949 24.9718832 22.0897419 24.5603226 21.4403548 23.2192258 20.5026452 22.196871 19.0478065 21.73 18.8229677 21.6572581 18.5928387 21.6043548 18.3706452 21.5448387 18.3458893 21.4834499 18.3277124 21.4196091 18.3164194 21.3543871 18.2344194 19.2770538 18.1533011 17.1992796 18.0730645 15.1210645 18.0730645 14.9623548 18.0730645 14.8036452 18.0730645 14.6449355 18.8785161 15.1580968 19.3149677 15.1409032 19.9550968 14.4928387 21.200086 13.246086 22.4283226 11.9861075 23.6398065 10.7129032 24.4267419 9.88496774 25.1660645 9.01074194 25.9543226 8.18545161 26.2201613 7.91035484 26.5732903 7.71858065 26.8854194 7.48712903zM37.0322581 8.93270968C37.0322581 10.1124516 36.7069032 11.2300323 36.351129 12.341 35.6544495 14.4824367 34.800379 16.5694276 33.7959032 18.5849032 33.4242581 19.3414194 32.9124194 20.0397419 32.4019032 20.7129355 31.9339549 21.3391774 31.2299099 21.746405 30.4537419 21.8397742 30.0701935 21.8953226 29.9088387 21.7908387 29.7699677 21.4787097 29.6006774 21.1004516 29.4194839 20.7248387 29.2144839 20.3650968 28.9499677 19.9088065 28.6047742 19.5239355 28.0969032 19.3453871 27.7609677 19.2276774 27.700129 19.0173871 27.7490645 18.7052581 27.8813226 17.7873871 27.9977097 16.866871 28.1207097 15.949 28.2247527 15.1916022 28.3296774 14.4324409 28.4354839 13.6715161 28.5188065 14.0087742 28.5677419 14.3724839 29.0822258 14.5589677 29.2144839 14.3936452 29.3467419 14.1912903 29.5054516 14.0180323 30.463711 12.9901837 31.5187075 12.0569857 32.6558387 11.2313548 34.0009032 10.2566129 35.4160645 9.39825806 37.0322581 8.93270968z"></path><path fill="#A1A6B6" d="M15.687129 12.3767097C14.9094516 14.0299355 13.7971613 15.4636129 12.6729677 16.8840645 12.1800586 17.5083224 11.5333259 17.9937137 10.7962258 18.2926129 9.75932258 18.7145161 8.91948387 18.3375806 8.16296774 17.6313226 7.80270856 17.2668289 7.4206623 16.9245331 7.01893548 16.6063226 6.49916129 16.2280645 6.068 16.3669355 5.76380645 16.9303548 5.27577419 17.8310323 4.79567742 18.7383226 4.28119355 19.6244516 4.16612903 19.8241613 3.92409677 19.951129 3.73893548 20.1111613 3.73893548 19.0438387 4.02858065 18.0426452 4.44783871 17.0771613 5.50590323 14.6594839 7.07712903 12.6610645 9.30567742 11.2300323 10.3491935 10.5568387 11.4561935 9.97887097 12.5473226 9.39032258 12.8455801 9.23597797 13.1625405 9.1208409 13.4903226 9.04777419 14.416129 8.82293548 14.9451613 9.08348387 15.2096774 10.0013548 15.441129 10.7737419 15.5350323 11.5831613 15.687129 12.3767097zM26.8854194 7.48712903C26.5732903 7.71858065 26.224129 7.91035484 25.9596129 8.18809677 25.1660645 9.0133871 24.4320323 9.8876129 23.6450968 10.7155484 22.430086 11.9896344 21.2053763 13.2496129 19.9709677 14.4954839 19.3308387 15.1435484 18.8943871 15.1567742 18.0889355 14.6475806 17.983129 13.9466129 17.891871 13.243 17.768871 12.5446774 17.5995806 11.5924194 17.425 10.6414839 17.2147097 9.69848387 17.153871 9.43396774 17.1869355 9.26070968 17.3813548 9.07158065 19.4630968 7.04935484 21.8807742 5.61303226 24.7322581 4.95835484 25.1589776 4.87539056 25.5944483 4.84650731 26.0283871 4.8723871 26.5362581 4.88693548 26.8682258 5.1593871 26.9092258 5.66593548 26.9541935 6.2663871 26.8973226 6.87741935 26.8854194 7.48712903zM37.0322581 8.93270968C35.4134194 9.39825806 33.9982581 10.2552903 32.6492258 11.2313548 31.5129541 12.0575382 30.458846 12.9911768 29.5014839 14.0193548 29.3388065 14.1926129 29.2065484 14.3949677 29.0782581 14.5602903 28.5598065 14.3738065 28.5148387 14.0100968 28.4315161 13.6728387 28.5677419 12.1915484 28.6854516 10.7129032 28.8322581 9.2316129 28.873752 9.04479124 28.9778068 8.8777437 29.1271935 8.75812903 29.9948065 7.99632258 31.037 7.56780645 32.1334194 7.26625806 33.1914839 6.9766129 34.2495484 6.75970968 35.3539032 6.78616129L35.4729355 6.78616129C36.7862581 6.83245161 37.1380645 7.34693548 37.1076452 8.58487097 37.0941465 8.70303578 37.0688924 8.81955907 37.0322581 8.93270968L37.0322581 8.93270968z"></path></g></svg>