<svg width="54" height="54" viewBox="0 0 54 54" style="width: 32px; height: 32px;" xmlns="http://www.w3.org/2000/svg"><g fill="none" transform="translate(7 6)"><path fill="#3A3F50" d="M0,25.1290323 L0,22.8608065 C0.0496026369,22.7823521 0.0937913941,22.7006029 0.132258065,22.616129 C0.529032258,21.5421935 0.822645161,20.4166774 1.33183871,19.4009355 C3.7700367,14.5372223 7.08481723,10.1651914 11.1096774,6.50445161 C12.4745806,5.2546129 13.8870968,4.08280645 15.5773548,3.29190323 C17.1856129,2.53935484 18.8533871,2.27748387 20.6097742,2.62003226 C20.8766804,2.65975631 21.1492661,2.63295205 21.4033226,2.542 C24.2548065,1.57254839 27.1459677,0.75783871 30.1323548,0.309483871 C30.6865161,0.22616129 31.2353871,0.104483871 31.7855806,-5.68434189e-14 L34.6516129,-5.68434189e-14 C34.9253871,0.0886129032 35.203129,0.169290323 35.4742581,0.264516129 C36.1249677,0.498612903 36.6579677,0.884806452 36.7703871,1.60693548 C37.0415161,3.32629032 37.3219032,5.04564516 37.5057419,6.78219355 C37.7319032,8.92212903 37.5877419,11.0633871 37.2729677,13.1887742 C37.2174194,13.5617419 37.3298387,13.8090645 37.5877419,14.078871 C38.3283871,14.8521398 39.0465484,15.6456882 39.7422258,16.4595161 C40.3113506,17.1270748 40.6973579,17.9309907 40.8624516,18.7925484 C41.1163871,20.0661935 40.8743548,21.2776774 40.4286452,22.4627097 C39.8281935,24.0498065 38.8878387,25.4530645 37.9038387,26.8272258 C34.332871,31.8080645 30.027871,36.1064516 25.4120645,40.1059355 C24.913419,40.5342107 24.3758827,40.9150025 23.8064516,41.2433548 C22.1426452,42.2167742 20.3571613,42.6373548 18.4367742,42.2538065 C17.0110323,41.968129 15.7664839,41.2684839 14.5735161,40.4722903 C10.6301221,37.8276957 7.03569037,34.696732 3.87516129,31.1533871 C2.28806452,29.3771613 0.674516129,27.5639032 0.0462903226,25.1501935 C0.0489354839,25.1382903 0.0171935484,25.1290323 0,25.1290323 Z M31.790871,25.7268387 L31.9032903,25.4623226 C32.4627419,23.8963871 33.1041935,22.3529355 33.563129,20.7579032 C34.6119355,17.1102258 35.2137097,13.3686452 35.562871,9.59532258 C35.7586129,7.47919355 35.6514839,5.36306452 35.0589677,3.28264516 C34.8592581,2.583 34.4466129,2.24441935 33.768129,2.17696774 C33.4327247,2.13687678 33.0940161,2.13244342 32.7576774,2.16374194 C31.380871,2.32112903 29.9895161,2.42825806 28.6312258,2.69277419 C22.1505806,3.95319355 16.5692903,6.96206452 11.726,11.4072581 C9.32022581,13.6146452 7.44612903,16.1883871 6.25448387,19.2382581 C5.89341935,20.1640645 5.51780645,21.1057419 5.61567742,22.1175161 C5.86432258,24.6780323 7.03083871,26.7465484 9.08083871,28.3085161 C9.29895818,28.4469691 9.52758127,28.5681349 9.7646129,28.6709032 L9.73154839,27.9844839 C10.357129,28.6140323 11.0250323,29.207871 11.5990323,29.8810645 C12.1730323,30.5542581 12.3,31.3689677 12.0354839,32.226 C11.6717742,33.3766452 12.013,34.342129 12.8369677,35.1475806 C13.6609355,35.9530323 14.5219355,36.7029355 15.3842581,37.4594516 C16.9250645,38.811129 18.7343548,39.7078387 20.6150645,40.4617097 C21.2300645,40.7090323 21.8807742,40.8135161 22.5076774,40.4683226 C22.8044806,40.3098129 23.0879941,40.1275858 23.3554516,39.9234194 C24.5814839,38.9685161 25.5720968,37.786129 26.5785806,36.6169677 C28.2847097,34.6330968 29.6787097,32.446871 30.5846774,29.9948065 C31.0965161,28.6100645 31.3980645,27.1486129 31.7948387,25.7215484 L31.790871,25.7268387 Z"></path><path fill="#11131B" d="M31.7935161,25.7175806 C31.3967419,27.1446452 31.0951935,28.6060968 30.5833548,29.9908387 C29.6773871,32.4429032 28.2833871,34.619871 26.5772581,36.613 C25.5707742,37.786129 24.5801613,38.9685161 23.354129,39.9194516 C23.0866715,40.1236181 22.803158,40.3058451 22.5063548,40.4643548 C21.8794516,40.8095484 21.2287419,40.7050645 20.6137419,40.4577419 C18.7330323,39.6999032 16.9237419,38.8071613 15.3829355,37.4554839 C14.5206129,36.6989677 13.6635806,35.9424516 12.8356452,35.1436129 C12.0077097,34.3447742 11.6704516,33.3766452 12.0354839,32.226 C12.3,31.3689677 12.1677419,30.5516129 11.5990323,29.8744516 C11.0303226,29.1972903 10.357129,28.6074194 9.73154839,27.977871 C9.59929032,27.5652258 9.47629032,27.1512581 9.33477419,26.7399355 C9.07025806,25.9543226 8.74622581,25.1832581 8.54122581,24.3817742 C8.18016129,23.0129032 8.03335484,21.622871 8.44335484,20.228871 C8.60026033,21.2249721 8.94063449,22.1833114 9.44719355,23.0552258 C10.0657807,24.1470327 11.0540617,24.9819355 12.233871,25.4094194 C12.5975806,25.5416774 12.8607742,25.4702581 13.1001613,25.1449032 C13.5524839,24.5259355 14.0418387,23.9347419 14.5166452,23.3329677 C14.6039355,25.0443871 15.4490645,26.3749032 16.5917742,26.5653548 L16.5428387,26.1593226 C17.1710645,26.3735806 17.7331613,26.2003226 18.2621935,25.8538065 C18.5716774,25.6514516 18.8745484,25.4385161 19.1813871,25.230871 C19.285871,25.230871 19.4459032,25.2705484 19.4895484,25.2176452 C20.5277742,24.0802258 21.3252903,22.8105484 21.3239677,21.2141935 C21.3239677,20.2672258 21.2062581,19.3202581 21.1202903,18.3746129 C21.0607742,17.7133226 20.9483548,17.0520323 21.3848065,16.4872903 C22.0460968,15.6487742 22.6968065,14.7970323 23.4414194,14.0391935 C24.2187262,13.2645679 25.1988391,12.7250016 26.2690968,12.4825161 C26.9026129,12.3290968 27.2663226,12.520871 27.4911613,13.104129 C27.5704004,13.3068022 27.6207114,13.5196219 27.6406129,13.7363226 C27.7014516,14.4346452 27.7424516,15.1356129 27.7953548,15.9040323 L28.0995484,15.482129 C28.0506129,16.2452581 28.0360645,17.0136774 27.9421613,17.7728387 C27.7279032,19.5014516 27.1380323,21.130871 26.5455161,22.7576452 C26.382122,22.9231695 26.2305352,23.0999471 26.091871,23.2866774 C25.2286204,24.5994747 24.1252103,25.7374366 22.8396452,26.6407419 C21.8053871,27.3747742 20.6494516,27.7490645 19.367871,27.634 C19.0345806,27.6035806 18.7065806,27.495129 18.3759355,27.4607419 C18.2132581,27.444871 17.9513871,27.4607419 17.8971613,27.5639032 C17.819129,27.6961613 17.8693871,27.9276129 17.9050968,28.1088065 C17.9457487,28.2205309 18.0082437,28.3230407 18.0889355,28.4103548 C18.6457419,29.2039032 19.3863871,29.6760645 20.3624516,29.7567419 L19.7739032,30.5013548 C20.2077097,31.1705806 20.853129,31.349129 21.5369032,31.2525806 C22.3304516,31.1401613 23.1160645,30.9047419 23.9043226,30.7235484 L26.4383871,30.135 C25.9490323,30.6494839 25.4914194,31.1996774 24.9637097,31.6691935 C23.1940968,33.2430645 21.1493871,34.2151613 18.7541935,34.3289032 C18.0452903,34.3619677 17.3324194,34.2971613 16.6221935,34.2786452 C16.0481935,34.2654194 15.8590645,34.5510968 16.1341613,35.0523548 C16.24955,35.2833727 16.4101037,35.4888994 16.6063226,35.6567742 C17.245129,36.1527419 17.8931935,36.6407742 18.5716774,37.0825161 C19.2898387,37.5493871 20.0265161,37.4978065 20.7446774,37.0216774 C21.7511613,36.3524516 22.7854194,35.7242258 23.7720645,35.029871 C26.7796129,32.9137419 29.2607742,30.3069355 31.0462581,27.0719032 C31.2940215,26.6160538 31.5431075,26.1646129 31.7935161,25.7175806 Z"></path><path fill="#282B39" d="M31.7935161,25.7175806 C31.5439892,26.1646129 31.2944624,26.612086 31.0449355,27.06 C29.2568065,30.2950323 26.7756452,32.9018387 23.7707419,35.0179677 C22.7840968,35.7123226 21.7498387,36.3405484 20.7433548,37.0097742 C20.0265161,37.4859032 19.2885161,37.5388065 18.5703548,37.0706129 C17.891871,36.628871 17.2477742,36.1448065 16.605,35.644871 C16.4087811,35.4769962 16.2482274,35.2714695 16.1328387,35.0404516 C15.8577419,34.5391935 16.046871,34.2535161 16.620871,34.2667419 C17.3310968,34.2852581 18.0439677,34.3500645 18.752871,34.317 C21.1480645,34.2032581 23.1927742,33.2311613 24.9623871,31.6572903 C25.4914194,31.1877742 25.9477097,30.6375806 26.4370645,30.1230968 L26.4370645,30.1230968 L26.5693226,30.0027419 C27.3231935,28.920871 28.167,27.8866129 28.8177097,26.747871 C30.2335026,24.284586 31.2440638,21.6097024 31.8107097,18.8256129 C31.9025491,18.6365697 31.9807801,18.4412133 32.0448065,18.2410323 C32.730121,15.5518985 33.1103353,12.7941246 33.1782581,10.019871 C33.2033871,8.89303226 33.1782581,7.75958065 33.0949355,6.6353871 C32.9904516,5.18054839 32.3886774,4.65151613 30.9404516,4.74277419 C29.29772,4.82220084 27.6703966,5.09793559 26.0931935,5.56409677 C22.8793226,6.55735484 19.9709677,8.14974194 17.2623226,10.1071613 C15.9397419,11.0686774 14.693871,12.1505484 13.4122903,13.1781935 C11.422649,14.8670761 9.81689032,16.9616419 8.70258065,19.3215806 C8.57032258,19.6032903 8.52535484,19.9246774 8.43806452,20.228871 C8.02806452,21.622871 8.17354839,23.0129032 8.53593548,24.3817742 C8.74622581,25.1832581 9.06496774,25.9543226 9.32948387,26.7399355 C9.46835484,27.1512581 9.594,27.5652258 9.72625806,27.977871 L9.75932258,28.6642903 C9.5241461,28.5617002 9.29730132,28.4409816 9.08083871,28.3032258 C7.03083871,26.7425806 5.86432258,24.6727419 5.61567742,22.1122258 C5.51780645,21.1004516 5.89341935,20.1548065 6.25448387,19.2329677 C7.44480645,16.1830968 9.32022581,13.6093548 11.726,11.4019677 C16.5692903,6.95677419 22.1545484,3.94790323 28.6312258,2.68748387 C29.9895161,2.42296774 31.380871,2.31980645 32.7576774,2.15845161 C33.0940161,2.1271531 33.4327247,2.13158646 33.768129,2.17167742 C34.4466129,2.23912903 34.8592581,2.57770968 35.0589677,3.27735484 C35.6514839,5.35380645 35.7586129,7.47125806 35.562871,9.59003226 C35.2137097,13.3633548 34.6119355,17.1049355 33.563129,20.7526129 C33.1041935,22.3476452 32.4627419,23.8910968 31.9032903,25.4570323 L31.790871,25.7215484 L31.7935161,25.7175806 Z"></path><path fill="#E27B11" d="M31.790871,25.7215484 L31.9032903,25.4570323 L31.790871,25.7215484 Z"></path><path fill="#3A3F50" d="M8.44070968 20.2354839C8.52535484 19.9312903 8.57296774 19.6099032 8.70522581 19.3281935 9.81484304 16.9708284 11.4146212 14.8773194 13.3977419 13.1874516 13.3133095 13.5325975 13.2462147 13.8817553 13.1967097 14.2336129 13.1186774 15.0483226 13.4466774 15.416 14.2547742 15.4609677 14.4125052 15.471344 14.5709042 15.4638012 14.7269355 15.4384839 15.6593548 15.2731613 16.5997097 15.1329677 17.5202258 14.9173871 18.6338387 14.652871 19.7315806 14.3261935 20.8359355 14.0259677 19.7580323 15.0985806 18.6510323 16.1420968 17.6075161 17.2490968 15.9820645 18.9684516 14.867129 20.9629032 14.514 23.3329677 14.0391935 23.9347419 13.5498387 24.5232903 13.0975161 25.1449032 12.858129 25.4742258 12.5949355 25.5416774 12.2312258 25.4094194 11.0514166 24.9819355 10.0631355 24.1470327 9.44454839 23.0552258 8.93875482 22.1853314 8.59840498 21.2293026 8.44070968 20.2354839zM31.7935161 18.8282581C31.2268702 21.6123476 30.216309 24.2872312 28.8005161 26.7505161 28.1550968 27.8932258 27.3112903 28.9235161 26.552129 30.0053871L26.419871 30.1257419 26.419871 30.1257419 23.8858065 30.7142903C23.0922581 30.8968065 22.3172258 31.1322258 21.5183871 31.2433226 20.8346129 31.339871 20.1891935 31.1613226 19.7553871 30.4920968L20.3439355 29.7474839C21.5102857 29.5913085 22.5901492 29.047184 23.4096774 28.2027097 24.7326749 26.8879444 25.7586536 25.3050058 26.4185484 23.5604516 26.5137742 23.3144516 26.4939355 23.0314194 26.527 22.755 27.1195161 21.1282258 27.7093871 19.4988065 27.9236452 17.7701935 28.0175484 17.0110323 28.0320968 16.2426129 28.0810323 15.4794839 28.2013871 15.1739677 28.3204194 14.8697742 28.4407742 14.5655806 29.5067742 14.8208387 30.3690968 15.3723548 30.8663871 16.3682581 31.1454516 16.9250645 31.3253226 17.532129 31.5435484 18.1193548 31.6453871 18.3508065 31.7154839 18.5915161 31.7935161 18.8282581z"></path><path fill="#282B39" d="M28.4553226,14.5642581 C28.3349677,14.8684516 28.2159355,15.1726452 28.0955806,15.4781613 L27.7913871,15.9000645 C27.7384839,15.1316452 27.6974839,14.4306774 27.6366452,13.7323548 C27.6167436,13.5156542 27.5664327,13.3028345 27.4871935,13.1001613 C27.2623548,12.5169032 26.8986452,12.325129 26.265129,12.4785484 C25.1948713,12.7210338 24.2147584,13.2606002 23.4374516,14.0352258 C22.6928387,14.7930645 22.0408065,15.6448065 21.3808387,16.4833226 C20.9404194,17.0440968 21.0528387,17.7159677 21.1163226,18.3706452 C21.2022903,19.3162903 21.3186774,20.2632581 21.32,21.2102258 C21.32,22.8065806 20.5264516,24.0762581 19.4855806,25.2136774 C19.4366452,25.2665806 19.2819032,25.2242581 19.1774194,25.2269032 C19.3321613,24.779871 19.5093871,24.338129 19.6376774,23.8844839 C20.0500755,22.5096884 19.9989554,21.0374286 19.4921935,19.6945484 C19.2924839,19.1655161 19.0557419,19.0120968 18.6642581,19.2501613 C17.3985484,20.0225484 16.4515806,21.0885484 16.2214516,22.5843871 C16.0509198,23.7836362 16.161395,25.0061075 16.5441613,26.1553548 L16.5930968,26.5613871 C15.4503871,26.3696129 14.6092258,25.0404194 14.5179677,23.329 C14.8710968,20.9562903 15.9860323,18.9644839 17.6114839,17.245129 C18.6483871,16.1354839 19.7580323,15.0919677 20.8359355,14.0193548 C21.0131613,13.8870968 21.1956774,13.7733548 21.3649677,13.637129 C23.0181935,12.3039677 24.8975806,11.3887419 26.870871,10.6480968 C27.5136452,10.4073871 28.1749355,10.2063548 28.987,10.2790968 C28.987,10.6904194 29.0332903,11.085871 28.9777419,11.4694194 C28.8243226,12.5023548 28.6312258,13.5313226 28.4553226,14.5642581 Z"></path><path fill="#6B7185" d="M16.5401935,26.1553548 C16.1574272,25.0061075 16.046952,23.7836362 16.2174839,22.5843871 C16.4476129,21.0885484 17.3945806,20.0225484 18.6602903,19.2501613 C19.0570645,19.0120968 19.2885161,19.1655161 19.4882258,19.6945484 C19.9949876,21.0374286 20.0461078,22.5096884 19.6337097,23.8844839 C19.5014516,24.338129 19.3281935,24.779871 19.1734516,25.2269032 C18.8666129,25.4345484 18.5637419,25.6474839 18.2542581,25.8498387 C17.7225806,26.1963548 17.1684194,26.3696129 16.5401935,26.1553548 Z"></path><path fill="#282B39" d="M26.5415484,22.7483871 C26.5084839,23.0129032 26.5283226,23.3078387 26.4330968,23.5538387 C25.773202,25.2983929 24.7472233,26.8813315 23.4242258,28.1960968 C22.6046976,29.0405711 21.5248341,29.5846956 20.3584839,29.740871 C19.3824194,29.6601935 18.639129,29.1827419 18.0849677,28.3944839 C18.004276,28.3071697 17.9417809,28.2046599 17.901129,28.0929355 C17.8654194,27.9117419 17.8151613,27.6855806 17.8931935,27.5480323 C17.9474194,27.4514839 18.2092903,27.429 18.3719677,27.444871 C18.7052581,27.4792581 19.0332581,27.5877097 19.3639032,27.618129 C20.6454839,27.7331935 21.8014194,27.3536129 22.8356774,26.624871 C24.1206283,25.723518 25.2239985,24.5878409 26.0879032,23.2774194 C26.2265674,23.090689 26.3781542,22.9139115 26.5415484,22.7483871 Z"></path><path fill="#6B7185" d="M28.4553226,14.5642581 C28.6312258,13.5313226 28.8243226,12.5023548 28.9737742,11.4667742 C29.0293226,11.085871 28.9830323,10.6904194 28.9830323,10.2764516 C28.1749355,10.2037097 27.5136452,10.4087097 26.8669032,10.6454516 C24.8975806,11.3860968 23.0129032,12.3 21.3649677,13.637129 C21.1956774,13.7693871 21.0131613,13.8923871 20.8359355,14.0193548 C19.7315806,14.3195806 18.6338387,14.6489032 17.5202258,14.9107742 C16.5944194,15.1263548 15.6593548,15.2665484 14.7269355,15.431871 C14.5709042,15.4571883 14.4125052,15.4647311 14.2547742,15.4543548 C13.4440323,15.4093871 13.1160323,15.0417097 13.1967097,14.227 C13.2462147,13.8751424 13.3133095,13.5259846 13.3977419,13.1808387 C14.6793226,12.1531935 15.9199032,11.0647097 17.2477742,10.1098065 C19.9564194,8.1523871 22.8647742,6.56 26.0786452,5.56674194 C27.6558482,5.10058075 29.2831716,4.824846 30.9259032,4.74541935 C32.374129,4.65680645 32.9759032,5.17790323 33.0803871,6.63803226 C33.1597419,7.76222581 33.1888387,8.89567742 33.1637097,10.0225161 C33.095787,12.7967697 32.7155726,15.5545436 32.0302581,18.2436774 C31.9662317,18.4438584 31.8880007,18.6392149 31.7961613,18.8282581 C31.718129,18.5915161 31.6480323,18.3508065 31.5607419,18.1180323 C31.3425161,17.5308065 31.1639677,16.9277097 30.8835806,16.3669355 C30.3836452,15.3710323 29.5213226,14.8195161 28.4553226,14.5642581 Z"></path><path fill="#E27B11" d="M26.4317742,30.1257419 L26.5640323,30.0053871 L26.4317742,30.1257419 Z"></path></g></svg>