<svg width="54" height="54" viewBox="0 0 54 54" style="width: 32px; height: 32px;" xmlns="http://www.w3.org/2000/svg"><g fill="none" transform="translate(7 5)"><path fill="#A1A6B6" d="M16.4941935,19.4503226 C16.523871,18.3987097 15.9780645,17.6993548 14.8167742,17.3187097 C14.7006452,17.3187097 14.5858065,17.3032258 14.4696774,17.3045161 C12.6825806,17.3225806 11.2322581,18.0258065 10.2619355,19.5329032 C9.50709677,20.7058065 10.0167742,21.8735484 11.3612903,22.2206452 C12.3625803,22.4781307 13.4229318,22.3692124 14.3509677,21.9135484 C14.8774194,21.5264516 15.4296774,21.1703226 15.92,20.7419355 C16.2868135,20.4129681 16.4957231,19.9430389 16.4941935,19.4503226 L16.4941935,19.4503226 Z"></path><path fill="#3A3F50" d="M38.636129,19.0322581 C37.294579,17.4009006 35.7914433,15.9094372 34.1496774,14.5806452 C32.4154839,13.1909677 30.6167742,11.8787097 28.8464516,10.5329032 C28.6812903,10.403871 28.5148387,10.2851613 28.3458065,10.1574194 C28.8103226,9.6683871 29.2722581,9.23096774 29.6774194,8.73806452 C30.5974194,7.63870968 30.8967742,6.34322581 30.7587097,4.94064516 C30.6980645,4.32516129 30.3535484,3.94451613 29.7354839,3.84903226 C29.3550457,3.79029184 28.9675581,3.79421467 28.5883871,3.86064516 C27.1445161,4.12903226 25.7948387,4.66064516 24.6374194,5.57419355 C24.1277419,5.97677419 23.7148387,6.50064516 23.2296774,6.99354839 L20.3909677,5.73419355 C20.323871,5.21806452 20.28,4.63483871 20.1664516,4.06967742 C19.9536124,3.06098899 19.6064307,2.08540826 19.1341935,1.16903226 C18.9087417,0.722852302 18.5974117,0.325577645 18.2180645,0 L17.5212903,0 C16.5138939,0.476175647 15.7098417,1.29670248 15.2541935,2.31354839 C14.5948387,3.69935484 14.2116129,5.15225806 14.3832258,6.72903226 C13.8270968,7.10322581 13.2696774,7.48129032 12.6774194,7.87870968 C12.563871,7.70580645 12.4490323,7.53806452 12.3393548,7.36258065 C11.3741935,5.82451613 9.94451613,4.91870968 8.24129032,4.43225806 C7.3716129,4.18451613 6.71354839,4.54580645 6.38322581,5.38580645 C6.23319513,5.78261723 6.13812119,6.19807736 6.10064516,6.62064516 C5.89548387,8.71096774 6.3083871,10.6206452 7.79741935,12.203871 C7.83372981,12.2516707 7.86568547,12.3026271 7.89290323,12.356129 C7.28903226,13.0903226 6.67612903,13.8090323 6.08645161,14.5496774 C4.36992183,16.6949418 2.85795148,18.9961606 1.57032258,21.4232258 C0.950967742,22.6090323 0.409032258,23.8180645 0.116129032,25.1303226 C0.101935484,25.2116129 0,25.2903226 0,25.36 L0,27.5664516 C0,27.5896774 0.0683870968,27.6090323 0.0735483871,27.636129 C0.366451613,29.1754839 1.29032258,30.3703226 2.19354839,31.5793548 C4.14193548,34.1858065 6.51741935,36.3741935 8.94193548,38.5148387 C10.6119842,40.0156113 12.4010833,41.3783645 14.2916129,42.5896774 C15.1013596,43.1140282 15.9568906,43.5640349 16.8477419,43.9341935 C19.0516129,44.8167742 21.1780645,44.4567742 23.1935484,43.3083871 C23.7478582,42.9922279 24.2702904,42.6231981 24.7535484,42.2064516 C28.9058065,38.6167742 32.8154839,34.7896774 36.12,30.3870968 C36.9096774,29.3350538 37.6580645,28.2541935 38.3651613,27.1445161 C39.0898003,26.0439111 39.5921366,24.812179 39.843871,23.5187097 C40.1509677,21.8258065 39.7290323,20.3458065 38.636129,19.0322581 Z M23.7974194,10.0709677 C23.7974194,7.79225806 25.0696774,6.09290323 27.323871,5.40258065 C27.8207348,5.24558676 28.3294935,5.12907713 28.8451613,5.05419355 C29.4903226,4.96516129 29.7612903,5.26193548 29.6025806,5.90193548 C29.5094738,6.2951264 29.3544184,6.67100508 29.1432258,7.01548387 C28.0847382,8.66689589 26.6320948,10.0290816 24.916129,10.9793548 C24.8825806,10.9987097 24.8490323,11.0193548 24.8154839,11.036129 C24.1006452,11.3858065 23.8387097,11.2283871 23.7987097,10.4193548 C23.7974194,10.3032258 23.8025806,10.1935484 23.8025806,10.0709677 L23.7974194,10.0709677 Z M16.7651613,2.2 C16.9974194,1.87096774 17.2219355,1.47354839 17.7122581,1.55483871 C18.1832258,1.63870968 18.323871,2.06193548 18.4425806,2.44774194 C18.5786116,2.86879404 18.6796007,3.30037138 18.7445161,3.73806452 C18.8258065,4.33032258 18.8503226,4.9316129 18.8954839,5.47741935 C18.8206452,6.84645161 18.6529032,8.14451613 18.196129,9.39225806 C18.1454661,9.53828475 18.0855601,9.68093872 18.0167742,9.81935484 C17.8103226,10.2064516 17.5690323,10.2451613 17.2425806,9.93419355 C17.1588039,9.85487763 17.0819648,9.76854147 17.0129032,9.67612903 C15.4270968,7.56774194 15.1393548,4.51612903 16.7741935,2.20387097 L16.7651613,2.2 Z M7.40645161,7.19096774 C7.43983468,6.8655703 7.49239924,6.54242749 7.56387097,6.22322581 C7.64903226,5.90967742 7.88774194,5.80774194 8.19741935,5.92129032 C8.37905004,5.98662719 8.55230048,6.07325241 8.71354839,6.17935484 C10.2064516,7.17677419 11.2077419,8.52516129 11.6270968,10.2851613 C11.7290323,10.7174194 11.843871,11.1470968 11.9174194,11.5845161 C12.0258065,12.2296774 11.7187097,12.5006452 11.1251613,12.2567742 C8.72516129,11.2774194 7.41935484,9.73548387 7.40645161,7.19096774 Z M28.4619355,35.836129 C27.5664516,36.7393548 26.7070968,37.6890323 25.6529032,38.4258065 C24.4521209,39.2833169 23.0547604,39.8246887 21.5896774,40 C21.1303226,40.0541935 20.6696774,40.0903226 20.2090323,40.116129 C18.9587097,40.1832258 17.7574194,39.9122581 16.5535484,39.6154839 C16.2731341,39.540951 16.0046694,39.4271359 15.756129,39.2774194 C15.6270968,39.2 15.4451613,38.9883871 15.4735484,38.8967742 C15.5532978,38.7321992 15.6912114,38.6030202 15.8606452,38.5341935 C16.0595852,38.4606934 16.2659771,38.4092036 16.476129,38.3806452 C18.2258065,37.9935484 19.9922581,37.6709677 21.72,37.2077419 C23.9948387,36.5974194 26.236129,35.8774194 28.4980645,35.2064516 C28.5682042,35.1902471 28.6393213,35.1786098 28.7109677,35.1716129 L28.8116129,35.2812903 C28.6980645,35.4658065 28.6141935,35.6851613 28.4619355,35.8387097 L28.4619355,35.836129 Z M33.4825806,24.7741935 C32.1148387,26.9948387 30.8387097,29.2774194 29.1612903,31.2903226 C27.3290323,33.483871 24.9832258,34.8077419 22.2283871,35.4619355 C20.68,35.8309677 19.1019355,36.04 17.5135484,35.9109677 C14.3690323,35.6529032 11.5264516,34.6748387 9.18064516,32.4374194 C7.58967742,30.9264516 6.34709677,29.1612903 5.12645161,27.3729032 C4.76387097,26.8425806 4.61032258,26.2283871 4.80774194,25.6025806 C5.51870968,23.4154839 6.19354839,21.2154839 7.00129032,19.0645161 C7.67130003,17.2386381 8.74690944,15.5886056 10.1470968,14.2387097 C11.8774194,12.5832258 13.8206452,11.2709677 16.2219355,10.803871 C17.0141935,10.6503226 17.8270968,10.596129 18.2554839,10.5458065 C22.363871,10.6219355 25.4993548,12.0722581 28.1174194,14.6748387 C29.4516129,16.0012903 30.3974194,17.5922581 31.1070968,19.3316129 C31.5767742,20.4825806 32.1625806,21.5664516 33.0141935,22.4929032 C33.2267565,22.74447 33.4007042,23.0262652 33.5303226,23.3290323 C33.7722668,23.7850287 33.7540928,24.3351595 33.4825806,24.7741935 Z"></path><path fill="#282B39" d="M33.0129032,22.4916129 C32.1612903,21.5651613 31.5754839,20.4812903 31.1058065,19.3303226 C30.396129,17.5909677 29.4503226,16 28.116129,14.6735484 C25.4980645,12.0696774 22.3625806,10.6193548 18.2541935,10.5445161 C17.8258065,10.5974194 17.0129032,10.6516129 16.2206452,10.8025806 C13.8193548,11.2709677 11.8709677,12.5832258 10.1458065,14.2387097 C8.74561912,15.5886056 7.67000971,17.2386381 7,19.0645161 C6.19354839,21.2154839 5.51870968,23.4154839 4.80645161,25.6025806 C4.60387097,26.2283871 4.76258065,26.8425806 5.12516129,27.3729032 C6.34709677,29.1612903 7.58967742,30.9264516 9.17419355,32.4374194 C11.52,34.6748387 14.3625806,35.6541935 17.5070968,35.9109677 C19.0954839,36.04 20.6696774,35.8309677 22.2219355,35.4619355 C24.9767742,34.8077419 27.3225806,33.48 29.1548387,31.2903226 C30.8387097,29.2774194 32.1148387,26.9948387 33.4825806,24.7741935 C33.7536847,24.3349277 33.7713674,23.7848015 33.5290323,23.3290323 C33.3995269,23.025812 33.225575,22.7435749 33.0129032,22.4916129 L33.0129032,22.4916129 Z M25.5406452,31.2567742 C23.6516129,32.5767742 21.5148387,33.2658065 19.2245161,33.52 C16.4374194,33.8309677 13.9341935,33.1574194 11.7212903,31.4374194 C11.6346568,31.36262 11.5519649,31.2833736 11.4735484,31.2 C9.58967742,29.6516129 8.41290323,27.68 8.10967742,25.2477419 C7.75096774,22.3703226 8.70580645,19.8283871 10.3032258,17.5135484 C11.6129032,15.6129032 13.3290323,14.2025806 15.5651613,13.523871 C19.7045161,12.2658065 25.0206452,13.6309677 27.84,18.2425806 C28.7256921,19.677133 29.2794155,21.2915717 29.4606452,22.9677419 C29.4722647,23.1800562 29.4722647,23.392847 29.4606452,23.6051613 C29.523871,26.8567742 28.1806452,29.4103226 25.5406452,31.2567742 Z"></path><path fill="#11131B" d="M28.4993548,35.2012903 C26.2412903,35.8722581 23.996129,36.5922581 21.7212903,37.2025806 C19.9935484,37.6658065 18.2270968,37.9896774 16.4774194,38.3754839 C16.2672674,38.4040423 16.0608755,38.4555321 15.8619355,38.5290323 C15.6925017,38.5978589 15.5545881,38.7270379 15.4748387,38.8916129 C15.4464516,38.9832258 15.6245161,39.1948387 15.7574194,39.2722581 C16.0059597,39.4219746 16.2744244,39.5357897 16.5548387,39.6103226 C17.7548387,39.9070968 18.96,40.1780645 20.2103226,40.1109677 C20.6709677,40.0851613 21.1316129,40.0490323 21.5909677,39.9948387 C23.0553423,39.8218307 24.452646,39.2831433 25.6541935,38.4283871 C26.7083871,37.6916129 27.5677419,36.7445161 28.4632258,35.8387097 C28.6154839,35.6851613 28.6993548,35.4658065 28.8141935,35.276129 L28.7135484,35.1664516 C28.6414687,35.173393 28.5699189,35.1850306 28.4993548,35.2012903 L28.4993548,35.2012903 Z"></path><path fill="#282B39" d="M17.2451613 9.9483871C17.5741935 10.2593548 17.8154839 10.2245161 18.0193548 9.83354839 18.0881407 9.69513227 18.1480468 9.5524783 18.1987097 9.40645161 18.6554839 8.15870968 18.8232258 6.86064516 18.8980645 5.4916129 18.8529032 4.94580645 18.8283871 4.34451613 18.7470968 3.75225806 18.6848485 3.31126434 18.5860129 2.876215 18.4516129 2.4516129 18.3329032 2.06451613 18.1935484 1.64258065 17.7212903 1.55870968 17.2309677 1.47225806 17.0064516 1.86967742 16.7741935 2.20387097 15.1432258 4.51870968 15.4309677 7.56774194 17.0193548 9.68774194 17.0870686 9.78089171 17.1626118 9.8680901 17.2451613 9.9483871zM24.8206452 11.036129C24.8541935 11.0193548 24.8877419 10.9987097 24.9212903 10.9793548 26.6372561 10.0290816 28.0898995 8.66689589 29.1483871 7.01548387 29.3595797 6.67100508 29.5146351 6.2951264 29.6077419 5.90193548 29.7664516 5.25677419 29.5006452 4.96516129 28.8503226 5.05419355 28.3346548 5.12907713 27.8258961 5.24558676 27.3290323 5.40258065 25.0748387 6.09290323 23.7987097 7.79225806 23.8025719 10.0709677 23.8025719 10.1870968 23.8025719 10.3032258 23.8025719 10.4193548 23.843871 11.2258065 24.1058065 11.3858065 24.8206452 11.036129zM11.1225806 12.2580645C11.716129 12.5019355 12.0258065 12.2245161 11.9148387 11.5858065 11.8412903 11.1483871 11.7264516 10.7187097 11.6245161 10.2864516 11.2051613 8.52645161 10.2051613 7.17806452 8.71096774 6.18064516 8.54971983 6.07454273 8.3764694 5.98791752 8.19483871 5.92258065 7.88516129 5.80903226 7.64645161 5.91096774 7.56129032 6.22451613 7.4898186 6.54371781 7.43725404 6.86686062 7.40387097 7.19225806 7.41935484 9.73548387 8.72516129 11.2774194 11.1225806 12.2580645z"></path><path fill="#6B7185" d="M25.1793548,20.3754839 C23.8606452,20.1303226 22.5354839,20.2025806 21.2180645,20.4258065 C20.9716129,20.4683871 20.7212903,20.4864516 20.4722581,20.516129 C20.876129,23.3032258 20.9754839,26.0890323 20.4219355,28.8670968 C20.3059355,29.4332965 20.1494034,29.9904299 19.9535484,30.5341935 C19.6283871,31.4580645 18.7393548,31.7212903 17.9522581,31.1380645 C17.7248303,30.9592378 17.5221939,30.7509605 17.3496774,30.5187097 C15.7883871,28.5083871 14.8619355,26.2270968 14.4632258,23.7225806 C13.043871,25.0516129 12.0116129,26.6193548 11.5341935,28.5212903 C11.3496774,29.2516129 11.2670968,29.9909677 11.4580645,30.7406452 C11.4801159,30.8927269 11.4853087,31.0467785 11.4735484,31.2 C11.5519649,31.2833736 11.6346568,31.36262 11.7212903,31.4374194 C13.9354839,33.1612903 16.4374194,33.8309677 19.2258065,33.52 C21.516129,33.2619355 23.6529032,32.5767742 25.5419355,31.2567742 C28.1819355,29.4103226 29.5251613,26.8567742 29.4658065,23.6064516 C29.1574194,23.12 28.8941935,22.5974194 28.5316129,22.156129 C27.6696774,21.1058065 26.476129,20.6154839 25.1793548,20.3754839 Z"></path><path fill="#3A3F50" d="M29.4606452,22.9677419 C29.2796034,21.2911266 28.7258732,19.6762272 27.84,18.2412903 C25.0206452,13.6296774 19.7109677,12.2645161 15.5651613,13.5225806 C13.3290323,14.2025806 11.6129032,15.6129032 10.3045161,17.5135484 C8.70580645,19.836129 7.75096774,22.3703226 8.11096774,25.2477419 C8.41419355,27.68 9.59096774,29.6464516 11.4748387,31.2 C11.486599,31.0467785 11.4814062,30.8927269 11.4593548,30.7406452 C11.2683871,29.9909677 11.3509677,29.2516129 11.5354839,28.5212903 C12.0129032,26.6193548 13.043871,25.0516129 14.4645161,23.7225806 C14.4283871,23.1204301 14.3926882,22.5182796 14.3574194,21.916129 C13.4293834,22.3717931 12.3690319,22.4807113 11.3677419,22.2232258 C10.0232258,21.876129 9.51354839,20.7083871 10.2683871,19.5354839 C11.2387097,18.0283871 12.6890323,17.3251613 14.476129,17.3070968 C14.5922581,17.3070968 14.7070968,17.316129 14.8232258,17.3212903 C14.9516056,16.6748981 15.2290719,16.0673881 15.6335484,15.5470968 C15.8597817,15.2600068 16.130779,15.0112294 16.436129,14.8103226 C17.0890323,14.3883871 17.7470968,14.4374194 18.2722581,15.0116129 C18.6708983,15.4543265 19.0061418,15.9502437 19.2683871,16.4851613 C19.8993548,17.756129 20.1793548,19.1419355 20.4735484,20.5187097 C20.7225806,20.4890323 20.9729032,20.4709677 21.2193548,20.4283871 C22.5367742,20.2051613 23.8619355,20.1329032 25.1806452,20.3780645 C26.4774194,20.6180645 27.6709677,21.1083871 28.5354839,22.1587097 C28.8980645,22.6 29.1612903,23.1225806 29.4696774,23.6090323 C29.4784313,23.395265 29.475416,23.1811779 29.4606452,22.9677419 L29.4606452,22.9677419 Z"></path><path fill="#282B39" d="M17.3496774,30.5187097 C17.5221939,30.7509605 17.7248303,30.9592378 17.9522581,31.1380645 C18.7393548,31.7212903 19.6296774,31.4580645 19.9535484,30.5341935 C20.1494034,29.9904299 20.3059355,29.4332965 20.4219355,28.8670968 C20.9754839,26.0890323 20.876129,23.3032258 20.4722581,20.516129 C20.1780645,19.1393548 19.8980645,17.7535484 19.2670968,16.4825806 C19.0048515,15.9476631 18.669608,15.4517459 18.2709677,15.0090323 C17.7458065,14.4348387 17.0877419,14.3858065 16.4348387,14.8077419 C16.1294887,15.0086488 15.8584914,15.2574261 15.6322581,15.5445161 C15.2277816,16.0648075 14.9503153,16.6723174 14.8219355,17.3187097 C15.9832258,17.6993548 16.523871,18.3987097 16.4993548,19.4503226 C16.501832,19.9417865 16.2948881,20.4110471 15.9303226,20.7406452 C15.44,21.1690323 14.8877419,21.5251613 14.3612903,21.9122581 C14.3974194,22.5144086 14.4331183,23.1165591 14.4683871,23.7187097 C14.8619355,26.2270968 15.7883871,28.5083871 17.3496774,30.5187097 Z"></path></g></svg>