<svg width="54" height="54" viewBox="0 0 54 54" style="width: 32px; height: 32px;" xmlns="http://www.w3.org/2000/svg"><g fill="none" transform="translate(6 2)"><path fill="#3A3F50" d="M0,21.2409639 L0,15.171747 C0.0362650602,15.1095783 0.0984337349,15.05 0.104909639,14.985241 C0.191686747,14.096747 0.259036145,13.2108434 0.353584337,12.3184639 C0.545271084,10.5984639 0.852228916,8.90436747 1.51924699,7.29316265 C2.35981928,5.2610241 3.82725904,3.96972892 5.98373494,3.50605422 C6.45777091,3.4143421 6.9398868,3.37094733 7.42268072,3.37653614 C7.86541777,3.36987051 8.26906211,3.62910101 8.44716867,4.03448795 C8.70620482,4.57328313 8.9898494,5.10819277 9.2113253,5.66512048 C9.85891566,7.27762048 10.1503313,8.98078313 10.506506,10.670994 C10.787992,12.0179819 11.096245,13.358494 11.4312651,14.6925301 C11.6631024,15.5991566 12.2821988,16.0861446 13.2354518,16.1599699 C13.5042616,16.2005605 13.7765582,16.1128311 13.9711145,15.9229518 C15.415241,14.5500602 16.9875904,13.3623795 18.8604217,12.6267169 C18.9070482,12.4389157 18.9614458,12.2718373 18.9899398,12.1008735 C19.4240043,9.49858937 20.0619017,6.93444083 20.897741,4.43210843 C21.6100904,2.2846988 22.9894578,0.793945783 25.2391867,0.212409639 C25.2676807,0.204638554 25.2845181,0.156716867 25.3078313,0.128222892 L27.0563253,0.128222892 C27.4008434,0.234427711 27.7414759,0.350993976 28.0924699,0.445542169 C29.5275301,0.834096386 30.2606024,1.84174699 30.4237952,3.24701807 C30.5213659,4.17153425 30.5399975,5.10268219 30.479488,6.03036145 C30.4030723,7.40454819 30.2204518,8.77225904 30.1233133,10.1464458 C30.1000525,10.6484258 30.1286985,11.151466 30.2087952,11.6475602 C30.2800301,12.1656325 30.6297289,12.4738855 31.1231928,12.5878614 C31.4612349,12.6655723 31.8212952,12.6500301 32.1593373,12.7303313 C32.5854518,12.8326506 33.0659639,12.8974096 33.4053012,13.1396084 C34.6383133,14.0138554 35.3921084,15.1510241 35.0696084,16.7661145 C35.0540663,16.8425301 35.0462952,16.920241 35.0372289,16.9966566 C34.9400904,17.7452711 34.8429518,18.4925904 34.7432229,19.2684036 L35.3364157,19.7320783 C37.1574398,21.1567771 38.9046386,22.6643675 40.470512,24.3714157 C41.5066566,25.4995181 42.5570482,26.6237349 42.8665964,28.207741 C42.8665964,28.2193976 42.8989759,28.2271687 42.9158133,28.2362349 L42.9158133,30.2178614 C42.8743675,30.2761446 42.8083133,30.329247 42.7940663,30.394006 C42.4236446,32.0505422 41.6284036,33.5089157 40.6842169,34.8934639 C36.9774096,40.3435843 32.3950602,44.9881024 27.4034337,49.2466566 C26.3504401,50.1472093 25.0891874,50.7704898 23.7341867,51.0599096 C23.5945867,51.0995935 23.4582009,51.1498181 23.3262048,51.2101506 L21.1114458,51.2101506 C21.0725904,51.1712952 21.0389157,51.1091265 20.9935843,51.0987651 C19.3240964,50.7412952 17.9162349,49.8540964 16.5355723,48.9086145 C13.545,46.8622289 10.8691566,44.4454217 8.29433735,41.9146386 C6.75301694,40.3805781 5.36252265,38.7020962 4.14198795,36.9022892 C3.59671687,36.1109337 3.16412651,35.26 3.04756024,34.3002711 C2.94912651,33.4868976 2.70304217,32.7292169 2.46084337,31.9534036 C1.4648494,28.7737349 0.485692771,25.585 0.199457831,22.2395482 C0.151713582,21.9032161 0.0851228393,21.56983 0,21.2409639 Z M24.252259,34.063253 C24.1823193,34.0969277 24.1136747,34.1331928 24.0437349,34.1655723 C23.1643072,34.5670783 23.0309036,34.5334036 22.4545482,33.7524096 C21.9831024,33.1151807 21.5,32.4857229 21.0583434,31.8290663 C20.8420482,31.5091566 20.6089157,31.440512 20.2721687,31.5700301 C19.9639157,31.6801205 19.6491867,31.7707831 19.3370482,31.870512 C18.7438554,31.310994 18.1545482,30.7488855 17.5574699,30.193253 C16.9603916,29.6376205 16.512259,28.9693072 16.4293675,28.1468675 C16.3546921,27.3751734 16.3330549,26.5992648 16.3646084,25.8246084 C16.4319578,23.9621386 16.5511145,22.1009639 16.6236446,20.238494 C16.6443675,19.7087651 16.5873795,19.1531325 16.0913253,18.8293373 C15.6455977,18.5204758 15.1647338,18.2656961 14.6588554,18.0703614 C13.4284337,17.6351807 12.670753,17.9317771 12.011506,19.0585843 C11.7382229,19.5274398 11.5232229,20.0299699 11.2745482,20.5130723 C11.2038415,20.6385887 11.1268979,20.7604882 11.044006,20.8783133 L10.9248494,20.8679518 C10.3912349,18.6441265 9.81487952,16.4293675 9.33695783,14.1925904 C8.81888554,11.7641265 8.40442771,9.31493976 7.91225904,6.87870482 C7.81935717,6.44322777 7.66175555,6.02412096 7.4446988,5.63533133 C7.16493976,5.11725904 6.71939759,4.97478916 6.14951807,5.12891566 C5.47631138,5.32886416 4.86106859,5.6877928 4.35569277,6.17542169 C3.41539157,7.03801205 2.88177711,8.15963855 2.56963855,9.37451807 C1.62933735,13.0657831 1.49463855,16.8166265 1.80159639,20.597259 C1.98939759,22.9026807 2.36759036,25.1796084 2.79888554,27.4500602 C3.13427063,29.1835968 3.65220617,30.8767641 4.34403614,32.5012651 C4.70010498,33.40087 5.44212136,34.0924674 6.36451807,34.3844578 C6.99009036,34.5942771 7.61825301,34.7963253 8.25159639,34.980241 C9.157173,35.2326042 9.96587651,35.7515825 10.5725602,36.4696988 C11.4791867,37.5356325 12.3288253,38.643012 13.2017771,39.7335542 C12.8818675,40.2412651 12.9984337,40.699759 13.2885542,41.1906325 C13.624006,41.7566265 13.8493675,42.3899699 14.1951807,42.9481928 C14.5609379,43.540887 14.9727822,44.1038708 15.4268976,44.6319277 C15.8659639,45.1422289 16.1457229,45.135753 16.7544578,44.8106627 C18.0703614,44.1047892 19.3953313,43.4170482 20.7099398,42.7111747 C21.8030723,42.1231627 22.911747,42.1102108 24.0774096,42.4819277 C25.570753,42.957259 27.0925904,43.336747 28.5962952,43.7771084 C28.8947632,43.8747197 29.2225824,43.8077777 29.4588855,43.6009639 C31.5991002,41.9925551 33.5365605,40.1307666 35.2289157,38.0562952 C35.8609639,37.2701205 36.2546988,36.399759 36.2948494,35.353253 C36.3181627,34.773012 36.3090964,34.2044277 36.2870783,33.6254819 C36.2352711,32.3018072 35.9632831,31.0195783 35.7094277,29.7295783 C35.6590043,29.3283996 35.3351616,29.0169709 34.9323193,28.982259 C34.4958938,28.8969402 34.0433583,28.9812406 33.6669277,29.2179819 C33.5814458,29.0884639 33.4868976,28.9589458 33.4143675,28.8294277 C32.8962952,27.8684036 32.7214458,26.8218976 32.6502108,25.7468976 C32.5453012,24.1577108 32.8678012,22.617741 33.1773494,21.0751807 C33.5011446,19.4575 33.8404819,17.845 33.8702711,16.1832831 C33.8819277,15.5356928 33.6695181,15.0370482 33.1553313,14.6808735 C32.0194578,13.8946988 30.5377711,13.5812651 29.4744277,15.1989458 C29.3203012,15.4333735 29.1545181,15.6613253 28.9693072,15.9307229 C28.9498735,15.8719768 28.9351482,15.8117765 28.9252711,15.7506928 C28.9451305,12.2735643 28.9636948,8.79643574 28.9809639,5.31930723 C28.9996371,4.6600475 28.9754093,4.00027122 28.9084337,3.34415663 C28.7439458,2.05933735 27.8722892,1.28093373 26.5900602,1.40915663 C24.8260241,1.5853012 23.3287952,2.27951807 22.575,4.03837349 C22.4162157,4.39235732 22.2803728,4.75619127 22.1683133,5.12762048 C21.7288153,6.65593373 21.2970884,8.18726908 20.8731325,9.72162651 C20.1543072,12.3301205 19.8046084,15.0033735 19.4484337,17.6766265 C19.041747,20.6892169 18.9562651,23.7134639 19.0119578,26.7428916 C19.0326807,27.9085542 19.3914458,28.9667169 20.2074096,29.8189458 C20.9042169,30.5455422 21.6321084,31.2436446 22.3820181,31.9223193 C23.0814157,32.5725 23.7678614,33.2226807 24.252259,34.063253 Z"></path><path fill="#282B39" d="M13.2017771 39.7374398C12.3288253 38.6468976 11.4753012 37.5356325 10.5725602 36.4735843 9.96587651 35.755468 9.157173 35.2364898 8.25159639 34.9841265 7.61825301 34.8002108 6.99009036 34.5955723 6.36451807 34.3883434 5.4429328 34.0971922 4.70106179 33.407157 4.34403614 32.5090361 3.65220617 30.8845352 3.13427063 29.1913679 2.79888554 27.4578313 2.36759036 25.1873795 1.98939759 22.9104518 1.80159639 20.6050301 1.49463855 16.8243976 1.62933735 13.0735542 2.56963855 9.38228916 2.88177711 8.16093373 3.41539157 7.05096386 4.36864458 6.17542169 4.8740204 5.6877928 5.48926319 5.32886416 6.16246988 5.12891566 6.72846386 4.97478916 7.17400602 5.12891566 7.4576506 5.63533133 7.67470736 6.02412096 7.83230898 6.44322777 7.92521084 6.87870482 8.4121988 9.31493976 8.83183735 11.7641265 9.34990964 14.1925904 9.82783133 16.4293675 10.4041867 18.6441265 10.9378012 20.8679518L11.0569578 20.8783133C11.1398497 20.7604882 11.2167933 20.6385887 11.2875 20.5130723 11.5361747 20.0299699 11.7511747 19.5274398 12.0244578 19.0585843 12.6837048 17.9317771 13.4413855 17.6338855 14.6718072 18.0703614 15.1776856 18.2656961 15.6585495 18.5204758 16.1042771 18.8293373 16.6003313 19.1531325 16.6573193 19.7087651 16.6365964 20.238494 16.5601807 22.1009639 16.4410241 23.9621386 16.3775602 25.8246084 16.3460068 26.5992648 16.3676439 27.3751734 16.4423193 28.1468675 16.5252108 28.9693072 16.9694578 29.6337349 17.5704217 30.193253 18.1713855 30.7527711 18.7568072 31.310994 19.35 31.870512 19.723012 32.4118976 20.1439458 32.9338554 20.2449699 33.6099398 20.4332101 34.7234591 20.3274 35.8668331 19.938012 36.9268976 19.8913855 37.0564157 19.7437349 37.1367169 19.6427108 37.2403313 19.4872892 36.7416867 19.3098494 36.2495181 19.1803313 35.7443976 18.8422892 34.4336747 18.0988554 33.4130723 17.0536446 32.5712048 16.4537265 32.0823719 15.8788019 31.563643 15.3310542 31.016988 14.6834639 30.3693976 14.2379217 29.6013554 14.1731627 28.6714157 14.1317169 28.0756325 14.1731627 27.4720783 14.1822289 26.8724096 14.2171988 25.4218072 14.2612349 23.9712048 14.3013855 22.5206024 14.3195181 22.0180723 14.3609639 21.514247 14.3493072 21.0104217 14.340241 20.6140964 14.0902711 20.5117771 13.7677711 20.7436145 13.6874098 20.7989254 13.6176542 20.8682422 13.5618373 20.948253 12.5412349 22.5309639 11.4481024 24.0903614 11.7110241 26.1289759 11.7194466 26.2449577 11.7194466 26.3613977 11.7110241 26.4773795 11.4221988 26.7040361 11.3328313 26.4126205 11.2356928 26.2649699 11.0012651 25.9100904 10.8251205 25.5163554 10.5881024 25.1666566 10.1199854 24.4554192 9.75826567 23.6796198 9.51439759 22.8638253 9.06496988 21.4870482 8.57798193 20.1219277 8.10783133 18.7516265 7.97831325 18.2257831 7.82159639 17.7038253 7.71021084 17.1728012 7.11356426 14.3588052 6.52943775 11.5461044 5.95783133 8.7346988 5.90472892 8.47566265 5.90731928 8.19331325 5.55891566 8.00939759 5.4161528 8.15710158 5.28938572 8.31946764 5.18072289 8.49379518 5.05917697 8.75772522 4.95912346 9.03103156 4.88153614 9.31105422 4.17695783 11.6566265 3.93216867 14.0656627 3.88554217 16.4967169 3.81198479 19.9754497 4.20401422 23.4483949 5.05120482 26.8231928 5.32707831 27.9292771 5.71045181 29.0081627 6.04590361 30.0987048 6.31918675 31.1413253 6.88 31.9637651 7.85915663 32.4494578 8.20538777 32.6282811 8.56581252 32.7781693 8.93674699 32.8975904 10.6386145 33.4156627 11.9273193 34.4958434 12.9958434 35.8687349 13.4478614 36.4489759 13.8675 37.0538253 14.3039759 37.6470181 15.1018072 38.7323795 16.1625602 39.2115964 17.4927108 38.9421988 17.8968072 38.8606024 18.2633434 38.6002711 18.6583735 38.442259 18.8099096 38.3813855 18.9562651 38.1301205 19.1518373 38.3813855 19.0715361 39.209006 18.6518976 39.8812048 18.1351205 40.4925301 16.9979518 41.8343373 15.8724398 41.9638554 14.4943675 40.9018072 14.0358735 40.5495181 13.6304819 40.1272892 13.2017771 39.7374398zM24.252259 34.063253C23.7678614 33.2278614 23.0865964 32.5776807 22.3755422 31.9365663 21.6295181 31.2527108 20.897741 30.5546084 20.2048193 29.828012 19.3888554 28.9757831 19.0300904 27.9228012 19.0093675 26.7519578 18.9536747 23.7199398 19.0391566 20.6956928 19.4458434 17.6856928 19.8071988 15.0124398 20.1568976 12.3391867 20.8705422 9.73069277 21.2927711 8.1971988 21.724498 6.66586345 22.1657229 5.13668675 22.2777825 4.76525754 22.4136253 4.40142359 22.5724096 4.04743976 23.3313855 2.28858434 24.8286145 1.59436747 26.5874699 1.41822289 27.8671084 1.28870482 28.7413554 2.06581325 28.9058434 3.35322289 28.9728189 4.00933748 28.9970468 4.66911377 28.9783735 5.32837349 28.9654217 8.80463855 28.9468574 12.2817671 28.9226807 15.759759 28.9325579 15.8208427 28.9472831 15.881043 28.9667169 15.9397892 29.1519277 15.6703916 29.3177108 15.4424398 29.4718373 15.208012 30.5351807 13.5851506 32.0168675 13.8985843 33.152741 14.6899398 33.6708133 15.0461145 33.8793373 15.5460542 33.8676807 16.1923494 33.8378916 17.8540663 33.4985542 19.4665663 33.174759 21.084247 32.8652108 22.6268072 32.5427108 24.1667771 32.6476205 25.7559639 32.7188554 26.8309639 32.8924096 27.8774699 33.4117771 28.838494 33.4843072 28.968012 33.5788554 29.0975301 33.6643373 29.2270482 33.6986518 29.3366423 33.7419721 29.4432104 33.7938554 29.5456627 34.166102 30.1365495 34.3805949 30.8130271 34.4168373 31.5104518 34.4984337 32.9481024 33.8987651 34.1409639 33.1436747 35.2871988 33.0853916 35.3765663 32.9273795 35.4011747 32.8146988 35.4568675 32.7978614 35.0890361 32.7836145 34.7212048 32.7615964 34.3546687 32.6553916 32.5802711 32.3730422 30.8512048 31.4910241 29.2697892 31.2923107 28.8911824 31.1133361 28.5025395 30.9548193 28.1054217 30.5973494 27.276506 30.365512 26.4113253 30.4535843 25.505994 30.594759 24.0618675 30.7657229 22.6190361 30.9574096 21.1813855 31.0636145 20.3770783 31.2371687 19.5831325 31.3809337 18.784006 31.3999562 18.7712254 31.4092077 18.7480968 31.404247 18.7257229L31.4638253 18.546988C31.5570783 18.074247 31.669759 17.6053916 31.7228614 17.1287651 31.7197735 16.9655993 31.6357977 16.8146369 31.4987952 16.7259639 31.3692771 16.6702711 31.1620482 16.7259639 31.0195783 16.7959036 30.9109179 16.8763056 30.8248235 16.983366 30.7696084 17.106747 30.3810542 17.7543373 29.9795482 18.3915663 29.6039458 19.0495181 29.4480872 19.2943886 29.3424277 19.5677825 29.2931024 19.8538253 29.1843072 20.8524096 29.1221386 21.8561747 29.0418373 22.8573494L28.9213855 23.4505422 28.7918675 23.4803313C28.6669913 23.3175242 28.556486 23.1441826 28.4615964 22.962259 28.244006 22.4441867 27.9979217 21.9325904 27.8606325 21.3937952 27.6093675 20.4029819 27.4280422 19.3940361 27.2130422 18.3928614 27.1029518 17.1753916 26.9643675 15.960512 26.889247 14.741747 26.6846084 11.4688253 26.5771084 8.19331325 26.7921084 4.91391566 26.8189601 4.70174088 26.8250331 4.48745136 26.810241 4.27409639 26.7597289 3.87259036 26.4838554 3.69774096 26.1030723 3.8298494 25.9424716 3.89521466 25.7950332 3.98911888 25.6678916 4.10701807 25.1239616 4.58197025 24.720772 5.1970583 24.5022289 5.8853012 23.8947892 7.69855422 23.2070482 9.50403614 22.7666867 11.3613253 21.8807831 15.0448193 21.435241 18.8008434 21.2616867 22.5866566 21.2021084 23.8818373 21.2150602 25.1860843 21.4961145 26.4721988L21.5608735 26.6211446 21.5608735 26.6211446C21.5517464 27.3077806 21.7987901 27.9731823 22.2537952 28.4875 22.8870912 29.1920481 23.5640807 29.8560601 24.280753 30.4756024 25.0329307 31.1100312 25.6696268 31.8698598 26.1626506 32.7214458 26.6431627 33.5633133 27.1366265 34.3961145 27.6223193 35.2328012 27.9571891 35.8647322 28.5755429 36.2970497 29.2840361 36.3945783 30.2010241 36.5163253 31.1309639 36.5331627 32.0557229 36.5953313 32.0557229 37.0577108 31.7785542 37.3659639 31.4288554 37.5783735 30.8660875 37.9172707 30.2859111 38.226381 29.6907229 38.5044277 28.7154518 38.9629217 27.8580422 38.7492169 27.0848193 38.0161446 26.4031111 37.3526092 25.8144896 36.5997314 25.3350301 35.7780723 24.9853313 35.1939458 24.6084337 34.629247 24.252259 34.063253z"></path><path fill="#11131B" d="M32.8172892,35.4478012 C32.9299699,35.3921084 33.0879819,35.3675 33.1462651,35.2781325 C33.8987651,34.1318976 34.5010241,32.9390361 34.4194277,31.5013855 C34.3831852,30.8039608 34.1686923,30.1274832 33.7964458,29.5365964 C33.7445625,29.4341441 33.7012421,29.327576 33.6669277,29.2179819 C34.0433583,28.9812406 34.4958938,28.8969402 34.9323193,28.982259 C35.3351616,29.0169709 35.6590043,29.3283996 35.7094277,29.7295783 C35.9684639,31.024759 36.2352711,32.3018072 36.2870783,33.6254819 C36.3090964,34.2044277 36.3181627,34.773012 36.2948494,35.353253 C36.2546988,36.399759 35.8609639,37.2701205 35.2289157,38.0562952 C33.5381692,40.1304542 31.6024617,41.99223 29.4640663,43.6009639 C29.2269156,43.8091838 28.8972155,43.8762081 28.5975904,43.7771084 C27.0938855,43.3354518 25.5720482,42.9559639 24.0787048,42.4819277 C22.9052711,42.1102108 21.8017771,42.1231627 20.7112349,42.7111747 C19.3966265,43.4170482 18.0716566,44.1047892 16.755753,44.8106627 C16.1470181,45.135753 15.867259,45.1422289 15.4281928,44.6319277 C14.9740774,44.1038708 14.5622331,43.540887 14.1964759,42.9481928 C13.8519578,42.3899699 13.6265964,41.7566265 13.2898494,41.1906325 C12.9997289,40.699759 12.8831627,40.2412651 13.2030723,39.7335542 C13.6317771,40.1221084 14.0371687,40.5456325 14.498253,40.8992169 C15.8724398,41.9638554 16.9979518,41.8343373 18.1325301,40.4964157 C18.6506024,39.8850904 19.0689458,39.2128916 19.149247,38.3852711 L19.6349398,37.2325602 C19.7359639,37.1289458 19.8836145,37.0434639 19.930241,36.9191265 C20.3196289,35.859062 20.425439,34.715688 20.2371988,33.6021687 C20.1361747,32.9260843 19.7191265,32.4041265 19.3422289,31.862741 C19.6543675,31.763012 19.9690964,31.6723494 20.2773494,31.562259 C20.6140964,31.440512 20.8472289,31.5039759 21.0635241,31.8212952 C21.5051807,32.4779518 21.9882831,33.1074096 22.4597289,33.7446386 C23.0360843,34.521747 23.169488,34.5593072 24.0489157,34.1578012 C24.1188554,34.1254217 24.1875,34.0891566 24.2574398,34.0554819 C24.6187952,34.6266566 24.990512,35.1913554 25.3402108,35.769006 C25.8196704,36.5906651 26.4082919,37.343543 27.09,38.0070783 C27.8671084,38.7401506 28.7206325,38.9538554 29.6959036,38.4953614 C30.2910919,38.2173148 30.8712682,37.9082044 31.4340361,37.5693072 C31.7837349,37.3568976 32.063494,37.0512349 32.0609036,36.5862651 L32.8172892,35.4478012 Z"></path><path fill="#6B7185" d="M19.629759,37.2325602 L19.1440663,38.3852711 C18.948494,38.134006 18.8021386,38.3852711 18.6506024,38.4461446 C18.2620482,38.6041566 17.8916265,38.864488 17.4849398,38.9460843 C16.1547892,39.2154819 15.0940361,38.7362651 14.2962048,37.6509036 C13.8597289,37.0577108 13.4400904,36.4528614 12.9880723,35.8726205 C11.9221386,34.4997289 10.6334337,33.4221386 8.93674699,32.8975904 C8.56923118,32.7763836 8.21228883,32.6252029 7.86951807,32.4455723 C6.88388554,31.9598795 6.32307229,31.1374398 6.05626506,30.0948193 C6.16246988,30.1777108 6.27256024,30.2541265 6.37358434,30.343494 C7.0276506,30.9146687 7.60789157,30.7605422 7.8475,29.9109036 C8.01000286,29.3140499 8.06353025,28.6927811 8.00551205,28.0769277 C7.90189759,26.8231928 7.86692771,25.5642771 7.84879518,24.3066566 C7.83713855,23.514006 7.90189759,22.7200602 7.93945783,21.9274096 C7.98996988,20.8653614 8.04825301,19.8033133 8.10394578,18.7399699 C8.57409639,20.1102711 9.06108434,21.4753916 9.51051205,22.8521687 C9.75438013,23.6679631 10.1160999,24.4437625 10.5842169,25.155 C10.8251205,25.5046988 11.0012651,25.8984337 11.2318072,26.2533133 C11.3289458,26.4009639 11.4183133,26.6923795 11.7071386,26.4657229 C11.7770783,26.5330723 11.8457229,26.595241 11.9169578,26.6664759 C12.3987651,27.1120181 12.7627108,27.0343072 13.0178614,26.4152108 C13.1344277,26.1289759 13.2056627,25.8246084 13.301506,25.5306024 C13.6322088,24.5220884 13.9637751,23.5135743 14.2962048,22.5050602 C14.2560542,23.9556627 14.2120181,25.4062651 14.1770482,26.8568675 C14.1628012,27.4565361 14.1265361,28.0600904 14.1679819,28.6558735 C14.232741,29.5858133 14.6756928,30.3590361 15.3258735,31.0014458 C15.8736212,31.5481008 16.4485458,32.0668298 17.0484639,32.5556627 C18.0936747,33.3962349 18.8371084,34.4181325 19.1751506,35.7288554 C19.2981928,36.241747 19.4743373,36.7339157 19.629759,37.2325602 Z"></path><path fill="#A1A6B6" d="M8.09228916 18.7438554C8.03659639 19.8071988 7.97831325 20.869247 7.9278012 21.9312952 7.89024096 22.7239458 7.82548193 23.5178916 7.83713855 24.3105422 7.85527108 25.5681627 7.89024096 26.8270783 7.99385542 28.0808133 8.05234526 28.6979503 7.9988142 29.320578 7.83584337 29.9186747 7.59623494 30.7683133 7.01599398 30.9224398 6.36192771 30.3512651 6.26090361 30.2618976 6.15081325 30.1854819 6.04460843 30.1025904 5.70915663 29.0120482 5.32578313 27.9292771 5.05120482 26.8231928 4.20401422 23.4483949 3.81198479 19.9754497 3.88554217 16.4967169 3.9373494 14.0656627 4.18213855 11.6540361 4.88542169 9.31105422 4.96175007 9.03114686 5.0605032 8.75784323 5.18072289 8.49379518 5.28775578 8.31971353 5.41277915 8.15735679 5.55373494 8.00939759 5.90213855 8.19331325 5.89954819 8.47825301 5.9526506 8.7346988 6.53202811 11.5461044 7.1127008 14.3562149 7.69466867 17.1650301 7.80605422 17.6960542 7.95888554 18.218012 8.09228916 18.7438554zM14.2884337 22.5089458C13.9568675 23.5183233 13.6253012 24.5268373 13.2937349 25.534488 13.1978916 25.828494 13.1266566 26.1328614 13.0100904 26.4190964 12.7510542 27.0381928 12.390994 27.1159036 11.9091867 26.6703614 11.8379518 26.6056024 11.7693072 26.5408434 11.6993675 26.4696084 11.70779 26.3536266 11.70779 26.2371866 11.6993675 26.1212048 11.4403313 24.0787048 12.5295783 22.5193072 13.5501807 20.9404819 13.6059976 20.8604712 13.6757531 20.7911544 13.7561145 20.7358434 14.0747289 20.504006 14.3285843 20.6063253 14.3376506 21.0026506 14.348012 21.5 14.3065663 22.0064157 14.2884337 22.5089458zM21.4844578 26.4683133C21.2034036 25.1873795 21.1904518 23.8870181 21.2500301 22.5827711 21.4235843 18.7969578 21.8691265 15.0409337 22.7550301 11.3574398 23.2018675 9.5001506 23.8831325 7.69725904 24.4905723 5.88141566 24.7091154 5.19317275 25.112305 4.57808471 25.6562349 4.10313253 25.7833765 3.98523334 25.9308149 3.89132912 26.0914157 3.82596386 26.4721988 3.69644578 26.7480723 3.86870482 26.7985843 4.27021084 26.8193135 4.48254749 26.8193135 4.69639829 26.7985843 4.90873494 26.5835843 8.18813253 26.6910843 11.4636446 26.8957229 14.7365663 26.9708434 15.9553313 27.1094277 17.1702108 27.2195181 18.3876807 27.1910241 18.5975 27.1677108 18.8086145 27.1340361 19.0184337 26.8218976 20.9754518 26.2546084 22.8638253 25.5798193 24.7172289 25.491747 24.9607229 25.3531627 25.2612048 25.1498193 25.3648193 24.9464759 25.4684337 24.6511747 25.3466867 24.337741 25.319488 24.2781627 25.6588253 24.215994 26.0344277 24.1460542 26.4087349 23.9362349 27.5394277 23.0257229 27.8619277 22.1501807 27.118494L21.5388554 26.6004217 21.5388554 26.6004217 21.4844578 26.4683133z"></path><path fill="#6B7185" d="M21.5466265,26.6146687 L22.1579518,27.132741 C23.033494,27.8761747 23.944006,27.5536747 24.1538253,26.4229819 C24.2237651,26.0486747 24.2833434,25.6730723 24.345512,25.3337349 C24.6589458,25.3609337 24.9671988,25.4800904 25.1575904,25.3790663 C25.3479819,25.2780422 25.4995181,24.9710843 25.5875904,24.7314759 C26.2610843,22.8728916 26.8283735,20.9845181 27.1418072,19.0326807 C27.1754819,18.8228614 27.1987952,18.611747 27.2272892,18.4019277 C27.4384036,19.4031024 27.6158434,20.4120482 27.8748795,21.4028614 C28.0121687,21.9416566 28.2634337,22.4558434 28.4758434,22.9713253 C28.570733,23.1532489 28.6812383,23.3265905 28.8061145,23.4893976 L28.9356325,23.4596084 L29.0560843,22.8664157 C29.118253,22.7705723 29.1856024,22.6786145 29.24,22.5775904 C29.7231024,21.6593072 30.1906627,20.7345482 30.6893072,19.8253313 C30.8874699,19.4639759 31.1529819,19.1375904 31.3874096,18.7956627 C31.2436446,19.5947892 31.0700904,20.3887349 30.9638855,21.1930422 C30.7721988,22.6306928 30.6012349,24.0735241 30.4600602,25.5176506 C30.371988,26.4242771 30.6038253,27.2881627 30.9612952,28.1170783 C31.1203987,28.5124643 31.299804,28.8993745 31.4987952,29.2762651 C32.385994,30.8576807 32.6644578,32.586747 32.7693675,34.3611446 C32.7913855,34.7276807 32.8056325,35.095512 32.8224699,35.4633434 L32.0609036,36.6043976 C31.1361446,36.5422289 30.2062048,36.5253916 29.2892169,36.4036446 C28.5766899,36.3045221 27.9561266,35.8668464 27.6236145,35.2289157 C27.1379217,34.3922289 26.6444578,33.5594277 26.1639458,32.7175602 C25.6668763,31.8624262 25.0248235,31.1002897 24.266506,30.465241 C23.5498337,29.8456987 22.8728442,29.1816866 22.2395482,28.4771386 C21.7854489,27.9638175 21.5384681,27.2999702 21.5466265,26.6146687 Z"></path><path fill="#A1A6B6" d="M31.3822289 18.7801205C31.1478012 19.1220482 30.8822892 19.4484337 30.6841265 19.8097892 30.1854819 20.7164157 29.7179217 21.6437651 29.2348193 22.5620482 29.1817169 22.6630723 29.1130723 22.7550301 29.0509036 22.8508735 29.1312048 21.8496988 29.1933735 20.8459337 29.3021687 19.8473494 29.351494 19.5613066 29.4571535 19.2879127 29.613012 19.0430422 29.9860241 18.3876807 30.3901205 17.7478614 30.7786747 17.1002711 30.8338897 16.9768901 30.9199841 16.8698297 31.0286446 16.7894277 31.1711145 16.7207831 31.3809337 16.6599096 31.5078614 16.719488 31.6448639 16.808161 31.7288398 16.9591234 31.7319277 17.1222892 31.6736446 17.5989157 31.5609639 18.0677711 31.4728916 18.540512L31.4133133 18.719247C31.4180856 18.7442582 31.4052876 18.7693209 31.3822289 18.7801205zM31.4055422 18.7218373L31.4651205 18.5431024 31.4055422 18.7218373z"></path><path fill="#FFF" d="M21.4844578,26.4683133 L21.5492169,26.617259 L21.4844578,26.4683133 Z"></path></g></svg>