<svg width="54" height="54" viewBox="0 0 54 54" style="width: 32px; height: 32px;" xmlns="http://www.w3.org/2000/svg"><g fill="none" transform="translate(7 7)"><path fill="#3A3F50" d="M17.9791613,0 L20.1230645,0 C20.131,0.0171935484 20.1376129,0.0489354839 20.1495161,0.0515806452 C22.001129,0.43116129 23.6199677,1.35829032 25.2295484,2.28145161 C28.4196129,4.10793548 31.3755806,6.2796129 34.2429355,8.57164516 C36.241308,10.1418396 38.0674334,11.9196408 39.6906452,13.8751935 C40.7579677,15.1805806 41.1970645,16.6526129 40.8531935,18.3150968 C40.6938449,19.0692764 40.4644855,19.8069456 40.1680968,20.5185161 C39.5954194,21.8992903 38.7344194,23.1160645 37.8628387,24.3222581 C34.291871,29.274 29.9881935,33.5459355 25.3803226,37.5216129 C24.8991564,37.9358724 24.3796895,38.3034406 23.8289355,38.6193548 C21.3874516,40.0279032 18.8824839,40.1892581 16.343129,38.883871 C15.7099671,38.5556362 15.0941497,38.1949747 14.498129,37.8033226 C11.5302581,35.8644194 8.87451613,33.5432903 6.31003226,31.1097419 C4.49138581,29.3933032 2.84853883,27.4996872 1.40590323,25.4570323 C0.840338452,24.690236 0.418654025,23.8271497 0.161354839,22.9097419 C0.119513742,22.8078344 0.065323714,22.7114472 0,22.6227419 L0,20.2420968 C0.0687741935,20.0873548 0.149451613,19.9379032 0.205,19.7805161 C0.445709677,19.090129 0.617645161,18.368 0.928451613,17.7106774 C3.75348387,11.7352581 7.77941935,6.69358065 12.8832581,2.51290323 C14.3552903,1.3053871 16.0032258,0.411322581 17.9130323,0.0872903226 C17.9394839,0.0833225806 17.9566774,0.0304193548 17.9791613,0 Z M39.0954839,17.3416774 C39.1096968,16.780973 38.9166253,16.2347219 38.5532258,15.8074839 C38.1564516,15.3168065 37.7477742,14.8129032 37.2610645,14.4187742 C35.9199677,13.3342581 34.5484516,12.2867742 33.1610645,11.2551613 C31.2129032,9.80032258 29.0610645,8.77267742 26.6698387,8.28332258 C25.5575484,8.05583871 24.4399677,7.87067742 23.3104839,8.11403226 C22.4785806,8.29390323 21.648,8.49493548 20.8359355,8.74887097 C18.9437653,9.35435297 16.9609722,9.62731703 14.9755806,9.55564516 C13.7072258,9.5053871 12.4349032,9.55564516 11.1665484,9.50670968 C10.2068362,9.46537669 9.26268215,9.7595188 8.49625806,10.3386129 C6.81525806,11.5672903 5.56012903,13.1636452 4.5576129,14.9676452 C4.31029032,15.4146774 4.17009677,15.9146129 3.67545161,16.1936774 C3.52203226,16.2796452 3.42680645,16.5005161 3.34745161,16.6777419 C3.17683871,17.0573226 2.97845161,17.4369032 2.88983871,17.8376452 C2.72528424,18.6139599 2.36930299,19.3368337 1.85425806,19.9405484 C1.40590323,20.4695806 1.12816129,21.115 1.32522581,21.8172903 C1.4545659,22.2736982 1.66857453,22.7017155 1.95609677,23.0790323 C2.66235484,23.985 3.42151613,24.8512903 4.17935484,25.7162581 C4.45539848,26.0273676 4.75858382,26.3132913 5.08532258,26.5706452 C5.82621744,27.2012582 6.84520733,27.3933876 7.76487097,27.075871 C8.67216129,26.7968065 9.60325806,26.5984194 10.5198065,26.3497742 C13.6458438,25.4999384 16.8643918,25.0371 20.1032258,24.9716452 C21.0938387,24.9518065 22.0870968,24.9002258 23.0737419,24.8393871 C25.6092368,24.7024148 28.1520779,24.8202743 30.6640323,25.1911935 C31.2710968,25.2758387 31.882129,25.42 32.4865484,25.4001613 C33.3224194,25.3723871 34.0405806,24.9504839 34.6807097,24.4280645 C35.9859603,23.3551462 37.1033991,22.0723265 37.9871613,20.6322581 C38.5704194,19.6919032 39.0650645,18.6867419 39.0954839,17.3416774 Z M13.6741613,31.7882258 C13.9862903,31.7472258 14.2031935,31.7564839 14.3830645,31.6903548 C14.9411935,31.488 15.4808065,31.2340645 16.0415806,31.0409677 C16.8602581,30.7579355 17.6789355,30.3439677 18.5200968,30.2765161 C20.716831,30.092566 22.9282594,30.3447228 25.0271935,31.0184839 C25.5641613,31.1904194 26.1183226,31.3094516 26.6619032,31.4522903 C26.7849032,30.9840968 26.7941613,30.9788065 26.624871,30.7182581 C26.3619803,30.2755312 26.0754475,29.8472772 25.7665161,29.4353548 C25.3697419,28.9433548 24.9385806,28.4725161 24.3209355,28.2318065 C22.9993367,27.699127 21.6318363,27.2883013 20.2354839,27.0044516 C19.3096774,26.8259032 18.5849032,27.0679355 17.8548387,27.5744839 C16.3563548,28.6060968 15.1223871,29.9114839 13.9333871,31.267129 C13.8394839,31.3769032 13.7984839,31.5342903 13.6741613,31.7882258 Z"></path><path fill="#282B39" d="M38.8254999,17.3371753 C38.7950806,18.6822398 38.2964677,19.6874011 37.7145322,20.6277559 C36.83077,22.0678244 35.7133312,23.3506441 34.4080806,24.4235624 C33.7679516,24.9525947 33.0497903,25.367885 32.2139193,25.3956592 C31.6094999,25.4154979 30.9984677,25.2713366 30.3914032,25.1866914 C27.8794488,24.8157722 25.3366078,24.6979127 22.8011129,24.834885 C21.8118225,24.8957237 20.8172419,24.9473043 19.8305967,24.967143 C16.597086,25.0338931 13.3839467,25.4967202 10.2630483,26.3452721 C9.34649995,26.5939172 8.41143543,26.7923043 7.50811285,27.0713688 C6.58844922,27.3888855 5.56945932,27.1967561 4.82856447,26.566143 C4.50182571,26.3087892 4.19864036,26.0228655 3.92259672,25.7117559 C3.16872576,24.8467882 2.40427414,23.9804979 1.69801608,23.0745301 C1.41108154,22.698801 1.19709824,22.2726288 1.06714511,21.8180785 C0.864790271,21.1157882 1.14253221,20.4703688 1.59617737,19.9413366 C2.11122229,19.3376219 2.46720355,18.6147481 2.63175801,17.8384334 C2.72037092,17.4416592 2.91875801,17.0581108 3.08937092,16.6785301 C3.16872576,16.5013043 3.26395156,16.2817559 3.41737092,16.1944656 C3.91201608,15.9154011 4.05220963,15.4154656 4.29953221,14.9684334 C5.30204834,13.1644334 6.55717737,11.5680785 8.23817737,10.3394011 C9.00460145,9.760307 9.94875552,9.46616489 10.9084677,9.50749788 C12.1768225,9.55246562 13.4491451,9.50749788 14.7174999,9.55643336 C16.7028915,9.62810524 18.6856846,9.35514117 20.5778548,8.74965917 C21.3899193,8.49572368 22.2204999,8.29469143 23.0524032,8.11482046 C24.181887,7.87146562 25.3007903,8.05662691 26.411758,8.28411078 C28.805629,8.77346562 30.9548225,9.80111078 32.9029838,11.2559495 C34.283758,12.2875624 35.6552741,13.3350463 37.0029838,14.4195624 C37.4896935,14.8163366 37.8970483,15.3175947 38.2951451,15.8082721 C38.6530271,16.235858 38.8417194,16.7798189 38.8254999,17.3371753 Z M30.4641451,12.8404011 L29.0225322,12.1354656 L26.4170483,11.0535947 C25.474229,10.6827078 24.4454426,10.5873054 23.4504999,10.7784979 L20.8053387,11.4397882 C20.6099128,11.451802 20.4152355,11.4738743 20.2220806,11.5059172 C17.7462096,12.0455301 15.2571129,12.4317237 12.7084999,12.2611108 C12.159629,12.2240785 11.6054677,12.2756592 11.052629,12.2862398 C10.4561451,12.2941753 9.87949995,12.3774979 9.37162898,12.7266592 C9.17629969,12.8143205 8.98756081,12.9159831 8.80688705,13.0308527 C7.93656548,13.6887838 7.23749104,14.5466357 6.76879027,15.5318527 C6.66584309,15.7853399 6.58357467,16.0467412 6.52279027,16.3134979 C6.37333866,17.1202721 6.59024188,17.8767882 6.90104834,18.5962721 C7.09146601,19.009705 7.34538487,19.3908065 7.65359672,19.7257559 C7.99879027,20.1225301 8.22098382,20.0722721 8.47888705,19.6292076 C8.7076935,19.2324334 8.91137092,18.8277237 9.1176935,18.4203688 C9.6096935,17.4495947 10.0725967,16.4629495 10.5923709,15.5106914 C10.9481451,14.8494011 11.3528548,14.840143 11.8289838,15.4247237 C12.1794677,15.8545624 12.4902741,16.3174656 12.8367903,16.7473043 C13.3552419,17.3927237 13.6620806,17.3887559 14.2215322,16.7803688 C14.7809838,16.1719817 15.3748225,15.5252398 15.9713064,14.9181753 C16.3998225,14.4804011 16.6603709,14.4513043 17.1827903,14.7859172 C17.478335,14.9823677 17.7566387,15.2035948 18.0146935,15.4472076 C18.3532741,15.7514011 18.6640806,16.0873366 19.0053064,16.388885 C19.5343387,16.8531108 19.7631451,16.8213688 20.1466935,16.2566269 C20.3675645,15.9273043 20.5619838,15.5807882 20.7828548,15.2527882 C20.9788936,14.9328952 21.2000184,14.6290698 21.4441451,14.3441753 C21.8263709,13.9368205 22.1715645,13.9209495 22.5775967,14.3031753 C22.9614212,14.6726992 23.3256297,15.0620712 23.6687258,15.4696914 C24.3564677,16.2632398 25.0270161,17.0713366 25.7200483,17.8595947 C25.9043678,18.0658104 26.1177875,18.2440314 26.3535645,18.3886269 C26.7860483,18.653143 27.0479193,18.5737882 27.2449838,18.1055947 C27.3975633,17.7616924 27.5132737,17.402591 27.5901774,17.0343043 C27.805758,15.8876269 27.9869516,14.7343366 28.1879838,13.5836914 C28.2395645,13.2874334 28.2382419,12.9607559 28.5225967,12.7160785 C28.6720483,12.8575947 28.7963709,12.9805947 28.9193709,13.0943366 L29.2738225,13.9183043 C29.3134999,14.1828205 29.3531774,14.4473366 29.3928548,14.7118527 C29.4509114,14.700538 29.5076429,14.6832526 29.5621451,14.6602721 C29.8994032,14.4169172 30.2340161,14.1709172 30.5699516,13.9275624 C31.1386612,13.5149172 31.1386612,13.5149172 31.7298548,13.7040463 C31.5036935,13.3535624 31.2431451,13.1789817 30.4641451,12.8364334 L30.4641451,12.8404011 Z M6.15511285,20.1212076 L6.05988705,19.9664656 C5.66307745,19.3009656 5.14279693,18.7173895 4.52701608,18.2471108 C3.98762389,18.8996503 3.73950542,19.7448786 3.84059672,20.5854334 C3.93979027,21.621014 4.40798382,22.5574011 5.09572576,23.3496269 C5.62475801,23.9527237 6.26620963,24.3455301 7.11001608,24.286014 C7.99217737,24.3309817 8.80953221,24.0492721 9.6229193,23.7794656 C9.83188705,23.7225947 10.0408548,23.6683688 10.2498225,23.6088527 C14.3802419,22.4383688 18.5675322,21.687143 22.8844354,21.8894979 C23.4571129,21.9159495 24.0311129,21.9027237 24.6037903,21.908014 C26.4210161,21.9811968 28.2382419,22.0539387 30.0554677,22.1262398 C30.114015,22.1213493 30.1717505,22.109358 30.2274032,22.0905301 L30.6559193,22.0905301 C31.3436612,22.0455624 32.0327258,22.0138205 32.7178225,21.9582721 C33.4306935,21.8961108 33.9795645,21.5178527 34.4371774,20.990143 C35.0724059,20.226959 35.5737074,19.3616438 35.9197903,18.4309495 C35.9834533,18.2086944 36.0298812,17.9818605 36.0586612,17.7524656 C35.6539516,17.9283688 35.3629838,18.0090463 35.1249193,18.1677559 C34.7117812,18.4388322 34.3204315,18.7417413 33.9544354,19.0737237 C33.299758,19.678143 33.0881451,19.6464011 32.7389838,18.8092076 C32.5934999,18.4613688 32.4744677,18.1003043 32.3210483,17.7604011 C32.1713584,17.4153784 31.9898198,17.0850666 31.7787903,16.7737559 C31.3674677,16.2050463 30.9032419,16.1296592 30.3517258,16.562143 C29.7525967,17.0276914 29.2235645,17.5858205 29.0185645,18.3793688 C28.7765687,19.2620708 28.3655855,20.089427 27.8084032,20.8155624 C27.4975967,21.2334979 27.3124354,21.2811108 26.8455645,21.0443688 C26.5567586,20.9132307 26.2874853,20.742765 26.0454032,20.5378205 C25.2373064,19.7786592 24.4583064,18.9930463 23.664758,18.218014 C23.3684999,17.9270463 23.0973709,17.6016914 22.7667258,17.3583366 C22.3210161,17.0303366 22.0432741,17.0805947 21.6782419,17.4905947 C21.4018225,17.8014011 21.1677258,18.151885 20.8939516,18.4613688 C20.3649193,19.0684334 19.9562419,19.1226592 19.2870161,18.6743043 C18.9431451,18.4428527 18.6257258,18.161143 18.2990483,17.9111753 C18.1257903,17.7789172 17.9379838,17.6744334 17.7567903,17.5580463 L17.4525967,17.3914011 C16.899758,17.0369495 16.6497903,17.0501753 16.2146612,17.4932398 C15.6591774,18.0579817 15.1235322,18.6425624 14.5640806,19.202014 C14.0429838,19.7231108 13.8009516,19.7310463 13.2269516,19.3184011 C13.0510483,19.186143 12.8870483,19.0459495 12.7137903,18.9136914 C11.881887,18.2788527 11.5115645,18.3330785 10.9084677,19.1782076 C10.815887,19.3104656 10.724629,19.4427237 10.6439516,19.5749817 C10.1387258,20.3791108 9.63879027,21.1872076 9.1309193,21.9913366 C8.83333866,22.4648205 8.55427414,22.5666592 8.10459672,22.2492398 C7.71259194,21.9514428 7.35386025,21.6122218 7.03462898,21.2374656 C6.71853221,20.8896269 6.44740317,20.5007882 6.15643543,20.1304656 L6.15511285,20.1212076 Z M32.0221451,13.9632721 C32.2641774,14.2277882 32.4890161,14.4698205 32.7085645,14.7158205 C33.037887,15.0834979 33.340758,15.4763043 33.6952096,15.8162076 C34.0496612,16.1561108 34.3022741,16.1600785 34.7532741,15.855885 C33.6449516,14.7845947 32.5300161,14.0055947 32.0221451,13.9632721 L32.0221451,13.9632721 Z"></path><path fill="#11131B" d="M13.6741613,31.7882258 C13.7984839,31.5342903 13.8394839,31.3769032 13.9386774,31.267129 C15.129,29.9114839 16.3616452,28.6060968 17.860129,27.5744839 C18.5941613,27.0679355 19.3149677,26.8259032 20.2407742,27.0044516 C21.635329,27.2886127 23.0010451,27.6994342 24.3209355,28.2318065 C24.9385806,28.4725161 25.3697419,28.9433548 25.7665161,29.4353548 C26.0754475,29.8472772 26.3619803,30.2755312 26.624871,30.7182581 C26.7928387,30.9827742 26.7849032,30.9827742 26.6619032,31.4522903 C26.1183226,31.3094516 25.5641613,31.1877742 25.0271935,31.0184839 C22.9282594,30.3447228 20.716831,30.092566 18.5200968,30.2765161 C17.6789355,30.3439677 16.8602581,30.7579355 16.0415806,31.0409677 C15.4808065,31.2340645 14.9411935,31.488 14.3830645,31.6903548 C14.1979032,31.7564839 13.9862903,31.7419355 13.6741613,31.7882258 Z"></path><path fill="#A1A6B6" d="M24.8803871,21.9019355 C24.3077097,21.9019355 23.7337097,21.909871 23.1610323,21.8834194 C18.844129,21.6863548 14.6568387,22.4375806 10.5264194,23.6027742 C10.3174516,23.6622903 10.1084839,23.7165161 9.89951613,23.7733871 C9.93125806,23.518129 9.96564516,23.2641935 9.99474194,23.0089355 C10.1640323,21.4972258 10.8187097,20.2143226 11.8384194,19.1073226 C12.0672258,18.8586774 12.2894194,18.8560323 12.4732581,19.1456774 C12.7483548,19.5781613 12.9586452,20.049 13.2059677,20.5 C13.4532903,20.951 13.6834194,21.3636452 13.9439677,21.7815806 C14.0153871,21.8966452 14.1688065,21.9614516 14.3738065,22.1161935 C14.6462581,21.4945806 14.8790323,20.9549677 15.1210645,20.4193226 C15.5270968,19.5173226 15.9291613,18.6153226 16.5878065,17.8548387 C16.8959677,17.4990645 17.2490968,17.2874516 17.7265484,17.3906129 L18.0267742,17.5572581 C18.1458065,17.7979677 18.2569032,18.0452903 18.3878387,18.2807097 C18.8216452,19.0583871 19.2567742,19.8360645 19.7038065,20.6044839 C19.828129,20.8174194 19.9405484,21.0806129 20.3320323,21.0422581 C20.4232903,20.8875161 20.541,20.7089677 20.6362258,20.5132258 C20.9417419,19.9127742 21.2181613,19.2977742 21.5448387,18.7092258 C21.7226486,18.4019171 21.9381325,18.1180115 22.1862903,17.8640968 C22.4997419,17.5334516 22.6505161,17.5559355 22.9586774,17.9050968 C23.0466995,18.0125385 23.1288205,18.1246822 23.2046774,18.2410323 C23.981371,19.3491935 24.5492489,20.5898297 24.8803871,21.9019355 Z"></path><path fill="#6B7185" d="M29.1853871,13.0935484 L28.7886129,12.7152903 C28.5042581,12.9599677 28.5055806,13.2866452 28.454,13.5829032 C28.2529677,14.7335484 28.0717742,15.8868387 27.8561935,17.0335161 C27.7792899,17.4018028 27.6635795,17.7609042 27.511,18.1048065 C27.3139355,18.573 27.0520645,18.655 26.6195806,18.3878387 C26.3838037,18.2432432 26.170384,18.0650222 25.9860645,17.8588065 C25.2930323,17.0652581 24.6224839,16.2624516 23.9347419,15.4689032 C23.5941123,15.0573847 23.2321085,14.6640367 22.8502258,14.2904839 C22.4441935,13.9082581 22.099,13.924129 21.7167742,14.3314839 C21.4726474,14.6163784 21.2515227,14.9202038 21.0554839,15.2400968 C20.8346129,15.5680968 20.6401935,15.9146129 20.4193226,16.2439355 C20.0357742,16.8139677 19.8016774,16.8457097 19.2779355,16.3761935 C18.9367097,16.0746452 18.6259032,15.7387097 18.2873226,15.4345161 C18.0292678,15.1909034 17.7509641,14.9696763 17.4554194,14.7732258 C16.933,14.4452258 16.6724516,14.4743226 16.2439355,14.9054839 C15.6474516,15.5125484 15.0708065,16.1407742 14.4941613,16.7676774 C13.9175161,17.3945806 13.627871,17.3800323 13.1094194,16.7346129 C12.7615806,16.3034516 12.448129,15.8405484 12.1016129,15.4120323 C11.6254839,14.8274516 11.2207742,14.842 10.865,15.498 C10.3452258,16.4555484 9.88232258,17.4421935 9.39032258,18.4076774 C9.184,18.8150323 8.98032258,19.2223871 8.75151613,19.6165161 C8.487,20.0595806 8.27141935,20.1032258 7.92622581,19.7130645 C7.61801395,19.378115 7.36409509,18.9970136 7.17367742,18.5835806 C6.86287097,17.8640968 6.64464516,17.1075806 6.79541935,16.3008065 C6.91709677,16.6526129 7.02290323,17.0123548 7.16441935,17.358871 C7.37603226,17.8667419 7.60483871,18.3706452 8.11667742,18.6629355 C8.18809677,18.6126774 8.25819355,18.5901935 8.27803226,18.5439032 C8.774,17.466 9.29377419,16.3986774 9.74477419,15.3022581 C10.111524,14.4709407 10.0744379,13.5169499 9.64425806,12.7166129 C10.152129,12.3674516 10.7287742,12.284129 11.3252581,12.2761935 C11.2736774,13.7707097 12.0050645,14.8869677 13.063129,15.8312903 C13.5379355,16.2558387 13.8103871,16.2373226 14.3182581,15.841871 C14.4296369,15.7593102 14.5308565,15.6638619 14.6198065,15.5575161 C15.0999032,14.9530968 15.5694194,14.3407419 16.0481935,13.7363226 C16.1989677,13.545871 16.3695806,13.3726129 16.5362258,13.186129 C17.3099355,13.8130323 18.0135484,14.3896774 18.7237742,14.9570645 C19.2832258,15.4040968 19.7580323,15.3657419 20.2196129,14.8181935 C20.5634839,14.4095161 20.894129,13.9889355 21.2022903,13.5538065 C21.6360968,12.9414516 21.7009032,12.315871 21.1903871,11.7021935 C21.1404691,11.6198452 21.102611,11.5307675 21.0779677,11.4376774 L23.723129,10.7763871 C23.7035384,10.8700495 23.667731,10.959568 23.6173226,11.0409032 C22.903129,11.8000645 22.9666129,12.628 23.4546452,13.4440323 C23.9186278,14.2251023 24.4264284,14.9792966 24.9756129,15.703 C25.2881818,16.0865121 25.6606581,16.4170067 26.0786452,16.6817097 C26.5045161,16.9673871 26.8232581,16.794129 26.9264194,16.2849355 C26.9811594,16.0340417 27.0169699,15.7793893 27.0335484,15.523129 C27.1144089,14.0204563 26.998809,12.5136563 26.6896774,11.0409032 L29.2951613,12.1227742 L29.1853871,13.0935484 Z"></path><path fill="#6B7185" d="M24.8803871,21.9019355 C24.5480429,20.5935256 23.9802102,19.3565735 23.2046774,18.2516129 C23.1288205,18.1352628 23.0466995,18.0231191 22.9586774,17.9156774 C22.6505161,17.5665161 22.4997419,17.5440323 22.1862903,17.8746774 C21.9381325,18.1285922 21.7226486,18.4124977 21.5448387,18.7198065 C21.2181613,19.3083548 20.9417419,19.9233548 20.6362258,20.5238065 C20.541,20.7142581 20.4232903,20.8928065 20.3320323,21.0528387 C19.9352581,21.0911935 19.828129,20.828 19.7038065,20.6150645 C19.2567742,19.8466452 18.8216452,19.0689677 18.3878387,18.2912903 C18.2555806,18.055871 18.1458065,17.8085484 18.0267742,17.5678387 C18.2079677,17.6842258 18.3957742,17.7926774 18.5690323,17.9209677 C18.9023226,18.1709355 19.213129,18.45 19.557,18.6840968 C20.2262258,19.1350968 20.6296129,19.080871 21.1639355,18.4711613 C21.4377097,18.1590323 21.6718065,17.809871 21.9482258,17.5003871 C22.3132581,17.0917097 22.591,17.0414516 23.0367097,17.368129 C23.3673548,17.6114839 23.6384839,17.9368387 23.9347419,18.2278065 C24.7282903,19.0028387 25.5072903,19.7884516 26.3153871,20.5476129 C26.5574692,20.7525575 26.8267426,20.9230231 27.1155484,21.0541613 C27.5824194,21.2909032 27.7675806,21.2432903 28.0783871,20.8253548 C28.6361786,20.0976388 29.0471887,19.2684315 29.2885484,18.383871 C29.494871,17.5903226 30.0159677,17.030871 30.627,16.5507742 C31.1785161,16.1182903 31.6427419,16.1936774 32.0540645,16.7623871 C32.265094,17.0736977 32.4466327,17.4040095 32.5963226,17.7490323 C32.7550323,18.0889355 32.8687742,18.45 33.0142581,18.7978387 C33.3634194,19.6337097 33.5750323,19.6654516 34.2297097,19.0623548 C34.5957057,18.7303725 34.9870555,18.4274633 35.4001935,18.1563871 C35.6382581,17.9976774 35.9292258,17.917 36.3339355,17.7410968 C36.3051555,17.9704917 36.2587275,18.1973255 36.1950645,18.4195806 C35.8489817,19.3502749 35.3476802,20.2155902 34.7124516,20.9787742 C34.2561613,21.5078065 33.7072903,21.8847419 32.9930968,21.9469032 C32.308,22.0077419 31.6189355,22.0394839 30.9311935,22.0791613 C31.0039355,21.8966452 31.0634516,21.7075161 31.1547097,21.5342581 C31.5662062,20.7599198 31.7448843,19.8830648 31.6691935,19.0094516 C31.6057097,18.2793871 31.421871,17.5876774 30.9404516,17.0070645 C29.1523226,18.1339032 29.1166129,20.7420323 30.5026774,22.0791613 C30.4470248,22.0979892 30.3892893,22.1099804 30.3307419,22.114871 C28.5143978,22.0469785 26.6976129,21.976 24.8803871,21.9019355 Z"></path><path fill="#A1A6B6" d="M21.074 11.4376774C21.0986433 11.5307675 21.1365013 11.6198452 21.1864194 11.7021935 21.6969355 12.3211613 21.632129 12.9467419 21.1983226 13.5538065 20.8901613 13.9889355 20.5595161 14.4095161 20.2156452 14.8181935 19.7540645 15.3657419 19.2792581 15.4040968 18.7198065 14.9570645 18.0095806 14.3896774 17.3059677 13.8130323 16.5322581 13.186129 16.3656129 13.3726129 16.195 13.545871 16.0442258 13.7363226 15.5654516 14.3407419 15.0959355 14.9530968 14.6158387 15.5575161 14.5268888 15.6638619 14.4256691 15.7593102 14.3142903 15.841871 13.8064194 16.2386452 13.5339677 16.2558387 13.0591613 15.8312903 12.0010968 14.8869677 11.2697097 13.7707097 11.3212903 12.2761935 11.874129 12.2656129 12.4282903 12.2140323 12.9771613 12.2510645 15.5257742 12.423 18.014871 12.0354839 20.4907419 11.495871 20.6840349 11.4664858 20.8787115 11.4470623 21.074 11.4376774zM26.6870323 11.054129C26.9961638 12.5268821 27.1117637 14.0336821 27.0309032 15.5363548 27.0143248 15.7926151 26.9785143 16.0472675 26.9237742 16.2981613 26.8206129 16.8020645 26.501871 16.9753226 26.076 16.6949355 25.6580129 16.4302325 25.2855366 16.0997379 24.9729677 15.7162258 24.4237832 14.9925224 23.9159826 14.2383281 23.452 13.4572581 22.9639677 12.6412258 22.9004839 11.8132903 23.6146774 11.054129 23.6650859 10.9727938 23.7008932 10.8832753 23.7204839 10.7896129 24.7144291 10.59506 25.7431888 10.6867907 26.6870323 11.054129z"></path><path fill="#6B7185" d="M17.7225806,17.3959032 C17.2385161,17.2927419 16.892,17.5043548 16.5838387,17.860129 C15.9225484,18.6206129 15.5257742,19.5226129 15.1170968,20.4246129 C14.8750645,20.9536452 14.6422903,21.499871 14.3698387,22.1214839 C14.1648387,21.9667419 14.0114194,21.9019355 13.94,21.786871 C13.6754839,21.3689355 13.4400645,20.9364516 13.202,20.5052903 C12.9639355,20.074129 12.7443871,19.5794839 12.4692903,19.1509677 C12.2854516,18.8613226 12.0632581,18.8639677 11.8344516,19.1126129 C10.8147419,20.2196129 10.1600645,21.5025161 9.99077419,23.0142258 C9.96167742,23.2694839 9.92729032,23.5234194 9.89554839,23.7786774 C9.07554839,24.0431935 8.25819355,24.3301935 7.38264516,24.2852258 C7.41967742,23.836871 7.54003226,23.3739677 7.47125806,22.9428065 C7.39454839,22.4666774 7.14458065,22.017 6.97,21.5567419 C6.79541935,21.0964839 6.60893548,20.6031613 6.42906452,20.1270323 C6.72003226,20.4973548 6.99116129,20.8861935 7.30725806,21.2340323 C7.62648933,21.6087885 7.98522103,21.9480094 8.37722581,22.2458065 C8.82690323,22.5632258 9.10596774,22.4613871 9.40354839,21.9879032 C9.91141935,21.1837742 10.4113548,20.3756774 10.9165806,19.5715484 C11.0012258,19.4392903 11.0924839,19.3070323 11.1810968,19.1747742 C11.7841935,18.3336129 12.1545161,18.2793871 12.9864194,18.9102581 C13.1596774,19.0425161 13.3236774,19.1866774 13.4995806,19.3149677 C14.0735806,19.7315806 14.3156129,19.7196774 14.8367097,19.1985806 C15.3961613,18.639129 15.9318065,18.0545484 16.4872903,17.4898065 C16.9290323,17.0612903 17.1737097,17.0414516 17.7225806,17.3959032 Z"></path><path fill="#A1A6B6" d="M6.42641935 20.1270323C6.60276344 20.6031613 6.78307527 21.0797312 6.96735484 21.5567419 7.14193548 22.017 7.39190323 22.4666774 7.4686129 22.9428065 7.5373871 23.3739677 7.41703226 23.836871 7.38 24.2852258 6.53619355 24.3447419 5.88812903 23.9519355 5.36570968 23.3488387 4.67796774 22.5552903 4.20977419 21.6202258 4.11058065 20.5846452 4.01098149 19.7458438 4.25901256 18.902825 4.797 18.2516129 5.41278086 18.7218916 5.93306137 19.3054677 6.32987097 19.9709677L6.42509677 20.1204194 6.42641935 20.1270323zM9.64029032 12.7245484C10.0704701 13.5248854 10.1075562 14.4788762 9.74080645 15.3101935 9.28980645 16.4066129 8.77003226 17.4739355 8.27406452 18.5518387 8.25422581 18.598129 8.18412903 18.6206129 8.11270968 18.670871 7.60087097 18.3785806 7.37206452 17.8773226 7.16045161 17.3668065 7.01893548 17.0229355 6.91312903 16.6631935 6.79145161 16.3087419 6.85223601 16.0419852 6.93450443 15.780584 7.03745161 15.5270968 7.50650887 14.5428399 8.20555753 13.685927 9.07554839 13.0287419 9.25622215 12.9138723 9.44496103 12.8122097 9.64029032 12.7245484L9.64029032 12.7245484zM30.504 22.0870968C29.1179355 20.7499677 29.1536452 18.1418387 30.9417742 17.015 31.4231935 17.5956129 31.6030645 18.2873226 31.6705161 19.0173871 31.7462069 19.8910003 31.5675287 20.7678553 31.1560323 21.5421935 31.0660968 21.7154516 31.0052581 21.9045806 30.9325161 22.0870968L30.504 22.0870968zM29.1853871 13.0935484L29.2925161 12.1320323 30.734129 12.8369677C30.4339032 13.694 30.2050968 13.8950323 29.5438065 13.9175161 29.422129 13.6450645 29.3026559 13.3704086 29.1853871 13.0935484zM32.292129 13.9677742C32.8013226 14.0100968 33.9149355 14.7890968 35.0272258 15.8603871 34.5722581 16.1645806 34.3368387 16.179129 33.9691613 15.8207097 33.6014839 15.4622903 33.307871 15.088 32.9825161 14.7203226 32.759 14.4743226 32.5354839 14.2309677 32.292129 13.9677742z"></path><path fill="#6B7185" d="M29.5398387,13.9214839 C30.2103871,13.9003226 30.4339032,13.6979677 30.7301613,12.8409355 C31.5091613,13.1834839 31.7697097,13.3620323 31.9919032,13.7125161 C31.4007097,13.5233871 31.4007097,13.5233871 30.832,13.9360323 C30.4960645,14.1793871 30.1614516,14.4253871 29.8241935,14.6687419 C29.7696914,14.6917224 29.7129598,14.7090078 29.6549032,14.7203226 C29.6258065,14.4491935 29.5795161,14.1846774 29.5398387,13.9214839 Z"></path><path fill="#AEA2B5" d="M6.42509677,20.1257097 L6.32987097,19.9709677 L6.42509677,20.1257097 Z"></path></g></svg>