<svg width="54" height="54" viewBox="0 0 54 54" style="width: 32px; height: 32px;" xmlns="http://www.w3.org/2000/svg"><g fill="none" transform="translate(5 7)"><path fill="#3A3F50" d="M30.7262703,0 L33.2972973,0 C33.3628541,0.0465120189 33.4350036,0.0829635757 33.5113514,0.108144928 C36.4843243,0.572811594 38.8472432,2.05 40.5965405,4.4695942 C43.3780541,8.31884058 44.3496216,12.6327536 43.6931892,17.3186377 C42.9927568,22.3158841 40.8878919,26.6262319 37.2715676,30.1605507 C34.1796757,33.1802899 30.4610811,35.2350435 26.5272432,36.9273333 C25.7828108,37.2482029 24.9812973,37.4264638 24.1988108,37.6712754 C24.9563243,36.9487246 25.7174054,36.2321159 26.4665946,35.5024348 C26.7294054,35.2457391 26.9601081,34.9557681 27.2050811,34.680058 C27.4667027,34.5695362 27.7271351,34.4530725 27.9911351,34.3473043 C32.4268108,32.5789565 36.1311351,29.8777101 38.8127568,25.8787246 C40.8652973,22.8221449 42.2721081,19.5552174 42.3232432,15.7844058 C42.3743784,11.9815072 41.4325405,8.51255072 39.2705946,5.34901449 C36.0324324,0.609652174 30.1828108,0.922202899 27.2038919,2.99953623 C24.3331892,5.00081159 22.2687568,9.61182609 24.992,13.4991014 C25.9207568,14.8241739 27.1682162,15.5348406 28.7974054,15.503942 C30.1447568,15.4789855 30.7952432,14.7386087 30.7417297,13.3968986 C30.7179459,12.7753623 30.6953514,12.1514493 30.7262703,11.5322899 C30.7524324,11.0153333 30.9938378,10.6017681 31.5503784,10.4829275 C32.1069189,10.364087 32.4838919,10.6623768 32.7395676,11.1068406 C34.1297297,13.5478261 33.3436757,15.7582609 31.0247568,16.7173043 C29.3692251,17.3988833 27.5785747,17.6892656 25.7923243,17.5658261 C22.7099459,17.3733043 20.3220541,16.1397391 19.0377297,13.1568406 C18.7035676,12.3796232 18.2326486,11.649942 17.7534054,10.9464058 C17.2111351,10.1513623 16.3727568,9.89228986 15.4487568,9.99568116 C14.9345573,10.0480401 14.4313219,10.1782742 13.9563243,10.381913 C11.7087568,11.4086957 10.1081081,13.1223768 8.98432432,15.2805217 C8.67513514,15.8747246 8.62756757,16.5556812 8.77978378,17.2508986 C8.94332667,17.1478325 9.0851227,17.0138004 9.19718919,16.8563478 C10.2923789,15.3922847 11.7389276,14.2274705 13.4033514,13.4693913 C15.0991351,12.6969275 15.7389189,12.8549855 16.9447568,14.2489855 C17.3526486,14.7243478 17.7771892,15.1806957 18.1553514,15.6750725 C20.0497297,18.1564638 22.6338378,19.3436812 25.6638919,19.7061449 C26.1264865,21.0133913 27.2978378,21.5553043 28.399027,22.1792174 C28.3526486,22.2184348 28.3324324,22.2469565 28.3050811,22.2564638 C28.1707027,22.3016232 28.0339459,22.3396522 27.8995676,22.3848116 C26.1688275,22.9506858 24.6058237,23.9372818 23.3509189,25.256 C23.1535135,25.4651594 23.0928649,25.8026667 22.968,26.081942 C22.6661919,26.0991675 22.363646,26.0991675 22.0618378,26.081942 C19.7512432,25.8347536 17.4763243,25.4081159 15.3250811,24.5061159 C13.7208649,23.8322899 12.1535135,23.0681449 10.5683243,22.347971 C10.0831351,22.1281159 9.60151351,21.8928116 9.09967568,21.7204928 C8.31362162,21.4507246 7.56324324,21.648 7.04832432,22.2493333 C6.50248649,22.8863188 5.97805405,23.6005507 5.67124324,24.3694493 C5.20389189,25.5150725 4.78172973,26.7462609 5.18367568,28.000029 C5.46908108,28.8889565 5.9507027,29.7125217 6.33481081,30.5705507 C6.58572973,31.1326667 6.91394595,31.6852754 7.03405405,32.275913 C7.17794595,32.9818261 7.13632432,33.7257681 7.17556757,34.4530725 C6.80454054,34.1215072 6.41686486,33.8065797 6.06605405,33.456 C3.64962162,31.0506667 1.12616216,28.7225797 0.00118918919,25.3510725 L0.00118918919,23.3188986 C0.0523243243,23.2143188 0.111783784,23.1133043 0.152216216,23.0051594 C0.497081081,22.0924638 0.761081081,21.1381739 1.19632432,20.2718261 C3.51471572,15.6363678 6.7366868,11.5106464 10.672973,8.13701449 C11.6990021,7.25810267 12.8230841,6.50043531 14.0229189,5.87904348 C16.0195676,4.84156522 18.0970811,4.84631884 20.1377297,5.86953623 C20.9118919,6.25814493 21.6836757,6.64318841 22.459027,7.02823188 C22.4947027,6.98901449 22.5303784,6.96643478 22.5398919,6.93672464 C23.6779459,3.36081159 26.1918919,1.26921739 29.7261622,0.281652174 C30.0579459,0.180637681 30.3921081,0.0915072464 30.7262703,0 Z"></path><path fill="#282B39" d="M25.6638919,19.7073333 C22.6338378,19.3448696 20.0497297,18.1624058 18.1553514,15.6762609 C17.7771892,15.1806957 17.3526486,14.7255362 16.9447568,14.2501739 C15.7389189,12.8561739 15.0991351,12.6981159 13.4033514,13.4705797 C11.7389276,14.2286589 10.2923789,15.3934731 9.19718919,16.8575362 C9.0851227,17.0149888 8.94332667,17.1490209 8.77978378,17.252087 C8.62875676,16.5568696 8.67513514,15.875913 8.98432432,15.2817101 C10.1081081,13.1223768 11.7087568,11.4086957 13.9539459,10.3866667 C14.4289435,10.1830278 14.932179,10.0527937 15.4463784,10.0004348 C16.3703784,9.89228986 17.2087568,10.1513623 17.751027,10.9511594 C18.2267027,11.6546957 18.7023784,12.3843768 19.0353514,13.1615942 C20.3172973,16.1444928 22.7075676,17.378058 25.7899459,17.5705797 C27.5761963,17.6940192 29.3668467,17.4036369 31.0223784,16.722058 C33.3436757,15.7582609 34.1297297,13.5478261 32.7336216,11.1068406 C32.4779459,10.6623768 32.1057297,10.3628986 31.5444324,10.4829275 C30.9831351,10.6029565 30.7464865,11.0153333 30.7203243,11.5322899 C30.6894054,12.1514493 30.712,12.7753623 30.7357838,13.3968986 C30.7892973,14.7386087 30.1411892,15.4789855 28.7914595,15.503942 C27.1682162,15.5348406 25.9207568,14.8241739 24.9860541,13.4991014 C22.2628108,9.61182609 24.3272432,5.00081159 27.1979459,2.99953623 C30.1828108,0.922202899 36.0324324,0.609652174 39.2705946,5.34782609 C41.4325405,8.51136232 42.3743784,11.9767536 42.3232432,15.7832174 C42.2721081,19.554029 40.8652973,22.8209565 38.8127568,25.8775362 C36.1275676,29.8765217 32.4232432,32.5777681 27.9911351,34.3461159 C27.7271351,34.4518841 27.4667027,34.5683478 27.2050811,34.6788696 C27.1016216,34.7050145 26.9945946,34.7216522 26.8947027,34.7561159 C23.1535135,36.0550435 19.3088649,36.6088406 15.3714595,36.1346667 C13.7375135,35.9373913 12.1332973,35.4751014 10.5267027,35.0888696 C9.89643243,34.937942 9.38508108,34.5422029 9.16983784,33.9004638 C8.54590991,32.0465507 7.93823423,30.184715 7.34681081,28.3149565 C7.22789189,27.9429855 7.20410811,27.5424928 7.13632432,27.1538841 L7.304,27.0885217 C7.51686486,27.4248406 7.73210811,27.759971 7.94140541,28.0986667 C8.60497297,29.1682319 9.21502703,30.2853333 9.94162162,31.3144928 C10.6627738,32.3831741 11.8038249,33.0958612 13.0810811,33.2753623 C14.2084324,33.4405507 15.3322162,33.6402029 16.4655135,33.7364638 C19.3932973,33.9824638 22.2604324,33.6081159 25.0692973,32.7643478 C27.8984784,32.0024327 30.5459322,30.6809922 32.8549189,28.8782609 C37.0254054,25.6232174 39.7867027,21.5101449 40.3004324,16.1195362 C40.4846614,14.1987514 40.2166927,12.2615315 39.5179459,10.4627246 C38.977109,8.62735176 37.9576271,6.96870891 36.564,5.65681159 C35.0513514,4.23072464 33.2628108,3.6282029 31.1793514,3.84330435 C27.5606486,4.21646377 25.0312432,8.11086957 26.199027,11.5501159 C26.4130811,12.1787826 26.7543784,12.7016812 27.4012973,12.9631304 C27.788973,13.0570145 28.1754595,13.2222029 28.5643243,13.2293333 C29.1256216,13.240029 29.3206486,12.923913 29.1589189,12.3843768 C29.0554595,12.048058 28.908,11.7236232 28.7736216,11.3956232 C28.3847568,10.4448986 28.5643243,9.87921739 29.4252973,9.31353623 C30.1753232,8.83503844 31.0276094,8.53986617 31.9130811,8.45194203 C32.7395676,8.52205797 33.4816216,8.77756522 34.0393514,9.43 C36.4474595,12.2512754 35.8861622,17.1546377 31.9523243,18.728087 C29.9553086,19.5184212 27.8068529,19.8529827 25.6638919,19.7073333 Z"></path><path fill="#11131B" d="M25.0669189,32.7595942 C22.2580541,33.6033623 19.3909189,33.9777101 16.4631351,33.7317101 C15.3298378,33.6354493 14.2036757,33.4357971 13.0787027,33.2706087 C11.8032389,33.0945578 10.6620856,32.3868266 9.93805405,31.3228116 C9.21145946,30.2936522 8.60140541,29.1836812 7.93783784,28.1069855 C7.72854054,27.7682899 7.5132973,27.4331594 7.30043243,27.0968406 L7.13275676,27.1622029 C7.20054054,27.5508116 7.22551351,27.9513043 7.34324324,28.3232754 C7.93545946,30.1890725 8.54313514,32.0509082 9.16627027,33.9087826 C9.38151351,34.5481449 9.89286486,34.9438841 10.5231351,35.0971884 C12.1297297,35.4834203 13.7339459,35.9457101 15.3678919,36.1429855 C19.3052973,36.6183478 23.1499459,36.0633623 26.8911351,34.7644348 C26.991027,34.729971 27.0980541,34.7133333 27.2015135,34.6871884 C26.9565405,34.9628986 26.7258378,35.2528696 26.463027,35.5095652 C25.7138378,36.2392464 24.9527568,36.9558551 24.1952432,37.6784058 C23.4948108,38.2547826 22.8264865,38.8751304 22.0891892,39.4004058 C19.58,41.1830145 16.9388108,41.4337681 14.2405405,39.8757681 C11.6706563,38.3706813 9.29754216,36.5527983 7.17556757,34.4637681 C7.13632432,33.7364638 7.17556757,32.9925217 7.03405405,32.2866087 C6.91513514,31.6924058 6.58572973,31.1433623 6.33481081,30.5812464 C5.94594595,29.7172754 5.47027027,28.8937101 5.18367568,28.0047826 C4.78172973,26.7522029 5.20389189,25.5198261 5.67124324,24.3742029 C5.984,23.6053043 6.50367568,22.8910725 7.04832432,22.254087 C7.56324324,21.6527536 8.31362162,21.4554783 9.09967568,21.7252464 C9.60151351,21.8975652 10.0831351,22.1328696 10.5683243,22.3527246 C12.1535135,23.0728986 13.7208649,23.8370435 15.3250811,24.5108696 C17.4763243,25.4128696 19.7512432,25.8395072 22.0618378,26.0866957 C22.363646,26.1039211 22.6661919,26.1039211 22.968,26.0866957 L23.0774054,26.2590145 C23.8396757,27.3143188 24.9717838,27.7718551 26.1538378,28.1331304 C26.7282162,28.3090145 27.3180541,28.4373623 27.9174054,28.5918551 C27.3287568,29.1254493 26.7650811,29.5877391 26.2525405,30.1058841 C25.539027,30.8343768 25.1037838,31.7137971 25.0669189,32.7595942 Z"></path><path fill="#A1A6B6" d="M23.0774054,26.2554493 L22.968,26.0831304 C23.0928649,25.8038551 23.1535135,25.4663478 23.3509189,25.2571884 C24.6058237,23.9384702 26.1688275,22.9518742 27.8995676,22.386 C28.0339459,22.3408406 28.1707027,22.3028116 28.3050811,22.2576522 C28.3324324,22.2481449 28.3526486,22.2196232 28.399027,22.1804058 C27.2978378,21.5564928 26.1264865,21.0169565 25.6638919,19.7073333 C27.804876,19.85209 29.9512014,19.5175439 31.9463784,18.728087 C35.8802162,17.1546377 36.4415135,12.2512754 34.0334054,9.43 C33.4756757,8.77756522 32.7336216,8.52205797 31.9071351,8.45194203 C30.8317864,8.13298166 29.6875843,8.12803345 28.6095135,8.43768116 C28.3396598,8.52320682 28.0930934,8.66958543 27.8888649,8.86550725 C27.1610811,9.54289855 27.0469189,10.3866667 27.3061622,11.3076812 C27.4595676,11.851971 27.6783784,12.3903188 27.4012973,12.9595652 C26.7543784,12.6981159 26.4130811,12.1752174 26.199027,11.5465507 C25.0312432,8.10730435 27.5606486,4.21289855 31.1793514,3.83973913 C33.2628108,3.62463768 35.0513514,4.23191304 36.564,5.65324638 C37.9583405,6.9664632 38.9778743,8.62683111 39.5179459,10.463913 C39.4822703,11.1032754 39.4691892,11.7438261 39.4073514,12.3796232 C39.0232432,16.2942319 37.2763243,19.4601449 34.1297297,21.8262609 C31.2816216,23.9653913 28.003027,25.1181449 24.5674595,25.8894203 C24.0691892,26.0046957 23.5744865,26.1342319 23.0774054,26.2554493 Z"></path><path fill="#6B7185" d="M23.0774054,26.2554493 C23.5744865,26.1366087 24.0691892,26.0046957 24.5674595,25.8929855 C28.003027,25.1217101 31.2816216,23.9713333 34.1297297,21.8298261 C37.2763243,19.4637101 39.0232432,16.2977971 39.4073514,12.3831884 C39.4691892,11.7473913 39.4822703,11.1068406 39.5179459,10.4674783 C40.2166927,12.2662851 40.4846614,14.203505 40.3004324,16.1242899 C39.7867027,21.5137101 37.0254054,25.6315362 32.8549189,28.8830145 C30.5444337,30.6826448 27.896197,32.0008395 25.0669189,32.7595942 C25.1037838,31.7137971 25.5425946,30.8343768 26.2561081,30.1023188 C26.7638919,29.5841739 27.3263784,29.1218841 27.920973,28.5882899 C27.3263784,28.4337971 26.7317838,28.3054493 26.1574054,28.1295652 C24.972973,27.7682899 23.8396757,27.3107536 23.0774054,26.2554493 Z"></path><path fill="#A1A6B6" d="M27.4012973,12.9631304 C27.6783784,12.3938841 27.4595676,11.8555362 27.3061622,11.3112464 C27.0469189,10.3902319 27.1610811,9.54646377 27.8888649,8.86907246 C28.0930934,8.67315065 28.3396598,8.52677203 28.6095135,8.44124638 C29.6872443,8.13043593 30.8314459,8.13414708 31.9071351,8.45194203 C31.0216634,8.53986617 30.1693773,8.83503844 29.4193514,9.31353623 C28.5583784,9.87921739 28.3788108,10.4437101 28.7676757,11.3956232 C28.9020541,11.7236232 29.0495135,12.048058 29.152973,12.3843768 C29.3206486,12.923913 29.1256216,13.240029 28.5583784,13.2293333 C28.1754595,13.2222029 27.788973,13.0570145 27.4012973,12.9631304 Z"></path></g></svg>